<svg xmlns="http://www.w3.org/2000/svg" fill="none" viewBox="20 16 189 80">
<g filter="url(#filter0_d_262_1950)">
<rect x="20" y="16" width="189" height="80" rx="6" fill="url(#paint0_linear_262_1950)"/>
</g>
<mask id="mask0_262_1950" style="mask-type:alpha" maskUnits="userSpaceOnUse" x="20" y="16" width="189" height="80">
<rect x="20" y="16" width="189" height="80" rx="6" fill="url(#paint1_linear_262_1950)"/>
</mask>
<g mask="url(#mask0_262_1950)">
<path d="M19.2847 132.606C19.3112 132.783 19.3653 132.962 19.3597 133.139C19.3159 134.389 18.9158 135.551 18.4336 136.687C18.2166 137.199 17.9889 137.711 17.7071 138.188C17.4819 138.567 17.5565 138.846 17.8929 139.034C18.5784 139.416 19.2615 139.83 19.9958 140.092C20.7611 140.365 21.5919 140.451 22.3825 140.662C25.1063 141.388 27.0854 143.053 28.4518 145.496C28.915 146.325 29.4407 147.12 29.9458 147.925C30.178 148.296 30.512 148.336 30.7305 147.947C31.0633 147.353 31.4066 146.729 31.5498 146.074C31.8716 144.607 32.0729 143.113 32.3228 141.63C32.3329 141.572 32.3265 141.512 32.3376 141.455C32.5659 140.315 32.4817 139.173 32.429 138.02C32.378 136.903 32.0764 135.853 31.6878 134.845C31.1136 133.356 30.2416 132.015 29.1988 130.799C27.8105 129.18 26.3621 127.611 25.0286 125.948C24.1855 124.897 23.264 123.839 23.0019 122.451C22.8167 121.471 22.6392 120.436 23.1987 119.521C24.1293 118 25.0746 116.482 26.111 115.032C27.182 113.534 28.3225 112.079 29.5204 110.681C30.7446 109.251 32.0415 107.879 33.3699 106.545C34.4718 105.44 35.6866 104.447 36.8144 103.366C38.0495 102.181 39.2096 100.917 40.462 99.7535C41.7573 98.5495 43.0995 97.3919 44.4677 96.2713C46.0046 95.0126 47.5801 93.7979 49.1663 92.6012C50.4505 91.6327 51.7742 90.7151 53.0861 89.7834C54.3266 88.9032 55.5748 88.0333 56.8198 87.1596C58.064 86.2868 59.3092 85.4148 60.5542 84.541C61.5577 83.8366 62.5429 83.1047 63.567 82.431C65.1182 81.4111 66.7002 80.4363 68.2628 79.4334C70.7375 77.8455 73.2077 76.252 75.6778 74.6577C77.3866 73.5556 79.0909 72.4479 80.7987 71.3451C82.367 70.3324 83.2024 68.8165 83.9044 67.1338C84.92 64.6985 85.5368 62.1698 86.035 59.5974C86.0495 59.5214 86.0866 59.4483 86.2144 59.3812C86.221 59.5865 86.2575 59.7953 86.2286 59.9952C86.0284 61.3532 85.9097 62.7329 85.5833 64.0609C85.0746 66.1343 84.4329 68.1734 83.5579 70.1335C82.9962 71.3916 82.1809 72.476 81.316 73.5198C79.8638 75.2753 78.2547 76.9145 77.2302 78.9805C77.0067 79.4308 76.8872 79.9944 76.9156 80.4952C76.9632 81.3148 77.7339 81.8213 78.6437 81.7043C79.236 81.6284 79.8144 81.447 80.404 81.3413C81.7201 81.105 82.8415 80.4221 83.8977 79.6832C85.4538 78.5949 87.0046 77.4711 88.4097 76.1983C91.2802 73.5992 93.6094 70.559 95.1365 66.9752C96.0701 64.7833 96.9497 62.562 97.6915 60.3C97.9609 59.4775 98.3296 59.1478 99.1037 58.8723C104.779 56.8489 110.5 54.9368 115.942 52.3142C117.654 51.489 119.37 50.6721 121.069 49.8213C122.832 48.9387 124.572 48.0124 126.33 47.1191C126.975 46.7908 127.625 46.4636 128.301 46.2099C128.71 46.0555 129.173 46.0487 129.61 45.963C129.832 45.9201 130.047 45.8436 130.268 45.7937C130.699 45.6984 131.129 45.5996 131.563 45.5234C132.198 45.4108 132.835 45.3015 133.476 45.2166C134.807 45.0412 136.159 44.9401 137.411 44.4102C138.447 43.9712 139.148 42.1846 138.255 41.1211C138.101 40.9371 138.025 40.8035 138.163 40.557C138.675 39.6495 138.372 38.1549 137.114 37.7273C136.174 37.4079 135.224 37.1113 134.268 36.8441C131.946 36.1965 129.563 35.9466 127.166 35.7884C126.946 35.7741 126.696 35.6381 126.53 35.4823C125.058 34.1026 123.671 32.6203 122.122 31.3347C120.235 29.7688 118.101 28.5704 115.794 27.6922C114.11 27.0516 112.43 26.4185 110.667 26.0272C108.606 25.57 106.532 25.1922 104.412 25.2702C102.279 25.3491 100.144 25.4346 98.0203 25.6322C95.5389 25.8637 93.1153 26.4465 90.717 27.1216C89.0703 27.585 87.398 27.9775 85.7873 28.5449C83.7357 29.2679 81.7022 30.0645 79.7199 30.9594C77.5484 31.9394 75.4257 33.032 73.3175 34.1439C72.1958 34.7353 71.1588 35.4838 70.0697 36.1388C66.5925 38.2291 63.3871 40.711 60.0777 43.044C59.2532 43.6257 58.4074 44.1777 57.5684 44.7393C57.4536 44.816 57.3208 44.8669 57.172 44.8891C59.1692 42.8061 61.6362 41.3278 63.9904 39.5347C63.0028 39.4517 62.1086 39.3869 61.2165 39.3003C58.6404 39.0516 56.0673 38.7695 53.4884 38.5496C51.9161 38.4152 50.3378 38.3474 48.7608 38.2946C47.4367 38.2503 46.1097 38.2339 44.7867 38.2748C43.4079 38.3169 42.0295 38.4211 40.654 38.5391C39.7112 38.6193 38.7601 38.7034 37.8387 38.9039C36.6014 39.1729 35.3677 39.4965 34.1712 39.9088C33.0728 40.2868 32.0245 40.8104 30.9567 41.2745C29.5542 41.8847 28.2866 42.7263 27.1106 43.6866C26.4022 44.2661 25.7736 44.9511 25.1608 45.6346C24.9527 45.8665 24.8415 46.2298 24.7889 46.5506C24.6514 47.3925 25.1035 47.8967 25.9604 47.9201C26.7647 47.9423 27.5758 47.8969 28.371 47.989C29.4591 48.1139 30.5366 48.3346 31.6159 48.5256C33.1719 48.8012 34.7236 49.0782 36.2108 49.6556C37.6225 50.2034 38.892 50.9724 40.0413 51.9371C41.2966 52.9919 42.2744 54.2907 42.8875 55.803C43.8083 58.0722 43.5364 60.1948 42.0434 62.2133C40.7058 64.0218 39.5213 65.9445 38.2805 67.824C37.6257 68.816 36.9762 69.8135 36.3605 70.8299C35.8334 71.7006 35.3668 72.6076 34.8545 73.4877C34.3994 74.2694 33.8893 75.0212 33.4556 75.8148C32.7907 77.0315 32.1445 78.2604 31.5384 79.5074C31.0669 80.4766 30.6701 81.4816 30.2359 82.4692C29.756 83.5604 29.2664 84.6469 28.7921 85.7409C28.5666 86.2617 28.3736 86.7972 28.1539 87.3207C27.7804 88.2085 27.387 89.0878 27.0212 89.9789C26.5219 91.1966 26.0367 92.4202 25.5524 93.6437C24.9434 95.181 24.2958 96.7044 23.746 98.2631C22.938 100.553 22.1381 102.849 21.4531 105.177C20.6937 107.756 20.0413 110.367 19.3939 112.977C18.999 114.567 18.6879 116.177 18.3657 117.784C18.2364 118.43 17.7875 118.86 17.4068 119.329C15.555 121.607 13.2806 123.423 10.9686 125.201C8.0871 127.416 5.54735 129.938 3.921 133.256C2.76096 135.623 1.9095 138.08 1.58961 140.716C1.34997 142.691 1.47546 144.653 1.61108 146.624C1.71749 148.172 2.0362 149.665 2.64695 151.089C3.2195 152.425 3.9988 153.614 5.16951 154.514C5.84919 155.035 6.45707 154.903 6.77396 154.101C7.09597 153.286 7.36201 152.447 7.62944 151.611C8.40636 149.185 9.4624 146.889 10.9246 144.802C11.8334 143.504 12.9311 142.364 14.1699 141.365C14.6365 140.989 15.0636 140.562 15.5313 140.188C16.7867 139.181 17.4039 137.764 17.964 136.334C18.3355 135.385 18.5531 134.376 18.8434 133.396C18.9237 133.124 19.0189 132.856 19.1066 132.586C19.1642 132.591 19.2219 132.596 19.2796 132.601L19.2847 132.606ZM111.639 36.6125C111.999 38.7725 110.669 39.9425 108.957 39.4172C107.406 38.9409 106.684 36.6413 107.647 35.2477C108.272 34.3418 109.393 34.1578 110.305 34.7721C111.11 35.3152 111.533 36.0745 111.639 36.6134L111.639 36.6125Z" fill="url(#paint2_linear_262_1950)"/>
<path d="M105.731 57.3175C104.798 57.6542 103.86 57.9816 102.93 58.3292C101.657 58.8054 100.383 59.2834 99.1239 59.7939C98.9142 59.8785 98.6898 60.1084 98.6175 60.321C97.9181 62.3909 97.059 64.3913 96.1027 66.3546C95.9285 66.7122 95.8235 67.1288 95.7939 67.5262C95.6189 69.8939 95.1235 72.1867 94.198 74.3739C93.8746 75.1387 93.4384 75.8554 93.0962 76.6132C92.9311 76.9783 92.7975 77.3823 92.7685 77.7778C92.7077 78.5976 93.3333 79.1204 94.152 78.9654C95.225 78.7627 96.1397 78.2013 97.0346 77.6153C100.074 75.6258 102.237 72.8788 103.943 69.7086C105.376 67.0438 106.088 64.1878 106.414 61.2136C106.504 60.3867 106.574 59.5549 106.594 58.7233C106.604 58.3378 106.498 57.9429 106.401 57.5635C106.305 57.1849 105.994 57.3317 105.731 57.3166L105.731 57.3175Z" fill="url(#paint3_linear_262_1950)"/>
</g>
<path d="M129.42 81H124.264V66.4545H129.463C130.926 66.4545 132.186 66.7457 133.241 67.3281C134.297 67.9058 135.109 68.7367 135.678 69.821C136.25 70.9053 136.537 72.2027 136.537 73.7131C136.537 75.2282 136.25 76.5303 135.678 77.6193C135.109 78.7083 134.293 79.544 133.227 80.1264C132.167 80.7088 130.898 81 129.42 81ZM127.339 78.3651H129.293C130.202 78.3651 130.966 78.2041 131.587 77.8821C132.212 77.5554 132.68 77.0511 132.993 76.3693C133.31 75.6828 133.469 74.7973 133.469 73.7131C133.469 72.6383 133.31 71.7599 132.993 71.0781C132.68 70.3963 132.214 69.8944 131.594 69.5724C130.973 69.2505 130.209 69.0895 129.3 69.0895H127.339V78.3651ZM143.687 81.2131C142.584 81.2131 141.63 80.9787 140.825 80.5099C140.025 80.0365 139.407 79.3783 138.971 78.5355C138.536 77.688 138.318 76.7055 138.318 75.5881C138.318 74.4612 138.536 73.4763 138.971 72.6335C139.407 71.786 140.025 71.1278 140.825 70.6591C141.63 70.1856 142.584 69.9489 143.687 69.9489C144.79 69.9489 145.742 70.1856 146.542 70.6591C147.347 71.1278 147.967 71.786 148.403 72.6335C148.839 73.4763 149.056 74.4612 149.056 75.5881C149.056 76.7055 148.839 77.688 148.403 78.5355C147.967 79.3783 147.347 80.0365 146.542 80.5099C145.742 80.9787 144.79 81.2131 143.687 81.2131ZM143.701 78.8693C144.203 78.8693 144.622 78.7273 144.958 78.4432C145.295 78.1544 145.548 77.7614 145.718 77.2642C145.894 76.767 145.981 76.2012 145.981 75.5668C145.981 74.9323 145.894 74.3665 145.718 73.8693C145.548 73.3722 145.295 72.9792 144.958 72.6903C144.622 72.4015 144.203 72.2571 143.701 72.2571C143.195 72.2571 142.769 72.4015 142.423 72.6903C142.082 72.9792 141.824 73.3722 141.649 73.8693C141.478 74.3665 141.393 74.9323 141.393 75.5668C141.393 76.2012 141.478 76.767 141.649 77.2642C141.824 77.7614 142.082 78.1544 142.423 78.4432C142.769 78.7273 143.195 78.8693 143.701 78.8693ZM154.049 66.4545V81H151.024V66.4545H154.049ZM156.473 85.0909V70.0909H159.456V71.9233H159.591C159.723 71.6297 159.915 71.3314 160.166 71.0284C160.422 70.7206 160.753 70.465 161.161 70.2614C161.572 70.053 162.084 69.9489 162.695 69.9489C163.49 69.9489 164.224 70.1572 164.896 70.5739C165.569 70.9858 166.106 71.6084 166.509 72.4418C166.911 73.2704 167.112 74.3097 167.112 75.5597C167.112 76.7765 166.916 77.804 166.523 78.642C166.134 79.4754 165.604 80.1075 164.932 80.5384C164.264 80.9645 163.516 81.1776 162.688 81.1776C162.1 81.1776 161.601 81.0805 161.189 80.8864C160.782 80.6922 160.448 80.4484 160.188 80.1548C159.927 79.8565 159.728 79.5559 159.591 79.2528H159.499V85.0909H156.473ZM159.435 75.5455C159.435 76.1941 159.525 76.7599 159.705 77.2429C159.884 77.7259 160.145 78.1023 160.486 78.3722C160.827 78.6373 161.241 78.7699 161.729 78.7699C162.221 78.7699 162.638 78.6349 162.979 78.3651C163.32 78.0904 163.578 77.7116 163.753 77.2287C163.933 76.741 164.023 76.1799 164.023 75.5455C164.023 74.9157 163.935 74.3617 163.76 73.8835C163.585 73.4053 163.327 73.0312 162.986 72.7614C162.645 72.4915 162.226 72.3565 161.729 72.3565C161.236 72.3565 160.82 72.4867 160.479 72.7472C160.143 73.0076 159.884 73.3769 159.705 73.8551C159.525 74.3333 159.435 74.8968 159.435 75.5455ZM172.155 74.6932V81H169.129V66.4545H172.07V72.0156H172.197C172.444 71.3717 172.841 70.8674 173.391 70.5028C173.94 70.1335 174.629 69.9489 175.457 69.9489C176.215 69.9489 176.875 70.1146 177.439 70.446C178.007 70.7727 178.447 71.2438 178.76 71.8594C179.077 72.4702 179.233 73.2017 179.229 74.054V81H176.203V74.5938C176.208 73.9214 176.037 73.3982 175.692 73.0241C175.351 72.6501 174.873 72.4631 174.257 72.4631C173.845 72.4631 173.481 72.5507 173.163 72.7259C172.851 72.901 172.605 73.1567 172.425 73.4929C172.25 73.8243 172.16 74.2244 172.155 74.6932ZM181.61 81V70.0909H184.635V81H181.61ZM183.13 68.6847C182.68 68.6847 182.294 68.5355 181.972 68.2372C181.655 67.9342 181.496 67.572 181.496 67.1506C181.496 66.7339 181.655 66.3764 181.972 66.0781C182.294 65.7751 182.68 65.6236 183.13 65.6236C183.579 65.6236 183.963 65.7751 184.28 66.0781C184.602 66.3764 184.763 66.7339 184.763 67.1506C184.763 67.572 184.602 67.9342 184.28 68.2372C183.963 68.5355 183.579 68.6847 183.13 68.6847ZM190.085 74.6932V81H187.059V70.0909H189.942V72.0156H190.07C190.312 71.3812 190.717 70.8793 191.285 70.5099C191.853 70.1359 192.542 69.9489 193.352 69.9489C194.109 69.9489 194.77 70.1146 195.333 70.446C195.897 70.7775 196.335 71.2509 196.647 71.8665C196.96 72.4773 197.116 73.2064 197.116 74.054V81H194.09V74.5938C194.095 73.9261 193.924 73.4053 193.579 73.0312C193.233 72.6525 192.757 72.4631 192.151 72.4631C191.744 72.4631 191.384 72.5507 191.072 72.7259C190.764 72.901 190.522 73.1567 190.347 73.4929C190.177 73.8243 190.089 74.2244 190.085 74.6932Z" fill="white"/>
<defs>
<filter id="filter0_d_262_1950" x="0" y="0" width="229" height="120" filterUnits="userSpaceOnUse" color-interpolation-filters="sRGB">
<feFlood flood-opacity="0" result="BackgroundImageFix"/>
<feColorMatrix in="SourceAlpha" type="matrix" values="0 0 0 0 0 0 0 0 0 0 0 0 0 0 0 0 0 0 127 0" result="hardAlpha"/>
<feOffset dy="4"/>
<feGaussianBlur stdDeviation="10"/>
<feComposite in2="hardAlpha" operator="out"/>
<feColorMatrix type="matrix" values="0 0 0 0 0.172549 0 0 0 0 0.176471 0 0 0 0 0.192157 0 0 0 0.05 0"/>
<feBlend mode="normal" in2="BackgroundImageFix" result="effect1_dropShadow_262_1950"/>
<feBlend mode="normal" in="SourceGraphic" in2="effect1_dropShadow_262_1950" result="shape"/>
</filter>
<linearGradient id="paint0_linear_262_1950" x1="40.5" y1="-23" x2="119.388" y2="126.877" gradientUnits="userSpaceOnUse">
<stop stop-color="#4B48D6"/>
<stop offset="1" stop-color="#708CD5"/>
</linearGradient>
<linearGradient id="paint1_linear_262_1950" x1="12.6244" y1="-8.34782" x2="110.224" y2="101.612" gradientUnits="userSpaceOnUse">
<stop stop-color="#9D619B"/>
<stop offset="1" stop-color="#D8A1D2"/>
</linearGradient>
<linearGradient id="paint2_linear_262_1950" x1="51.5" y1="81.5" x2="83.5003" y2="-38.6979" gradientUnits="userSpaceOnUse">
<stop stop-color="#304AB7"/>
<stop offset="1" stop-color="#2F3034"/>
</linearGradient>
<linearGradient id="paint3_linear_262_1950" x1="51.5" y1="81.5" x2="83.5003" y2="-38.6979" gradientUnits="userSpaceOnUse">
<stop stop-color="#304AB7"/>
<stop offset="1" stop-color="#2F3034"/>
</linearGradient>
</defs>
</svg>