<svg xmlns="http://www.w3.org/2000/svg" width="162" height="45" viewBox="0 0 162 45" fill="none">
  <path d="M5.40015 4.8999V24.0202H9.42173V8.92148H35.4175V13.5612H33.1012V11.2378H11.738V23.9302H29.0796V28.5794H15.7596V26.2465H5.46883V38.9388H39.4391V19.8802H35.4175V34.9173H9.42173V30.2681H11.738V32.601H33.1012V19.9086H15.7596V15.2594H29.0796V17.5852H39.4391V4.8999H5.40015Z" fill="#737376"/>
  <path d="M66.8374 29.9232H51.8738V25.4711H54.6879V27.1091H64.0171V23.8516H51.8738V14.9595H66.8374V19.4056H64.0171V17.7799H54.6879V21.0374H66.8374V29.9232Z" fill="#737376"/>
  <path d="M84.3259 27.1073H69.3622V29.9276H84.3259V27.1073Z" fill="#737376"/>
  <path d="M84.3259 21.0356H69.3622V23.856H84.3259V21.0356Z" fill="#737376"/>
  <path d="M84.3259 14.9578H69.3622V17.7781H84.3259V14.9578Z" fill="#737376"/>
  <path d="M117.357 17.7799V21.0374H108.028V17.7799H117.357V14.9595H105.207V29.9232H108.028V23.8516H117.357V27.1091H120.171V17.7799H117.357Z" fill="#737376"/>
  <path d="M135.714 14.9595V18.6666L127.278 27.1091H126.385V14.9595H123.57V29.9232H128.441L138.534 19.8366V14.9595H135.714Z" fill="#737376"/>
  <path d="M144.611 14.9595V17.7799H153.941V21.0374H144.611V17.7799H141.791V27.1091H144.611V23.8516H153.941V29.9232H156.755V14.9595H144.611Z" fill="#737376"/>
  <path d="M89.6652 17.7799H98.9944V14.9595H86.851V29.9232H98.9944V27.1091H89.6652V17.7799Z" fill="#737376"/>
  <path d="M101.815 17.7798L98.9944 17.7799V27.1091L101.815 27.1091V17.7798Z" fill="#737376"/>
</svg>