<svg xmlns="http://www.w3.org/2000/svg" width="24" height="24" fill="none"><path fill="#fff" d="m22.882 10.504-.002-.002-9.382-9.383C13.098.72 12.566.5 12 .5c-.565 0-1.097.22-1.497.62l-9.378 9.378a2.12 2.12 0 0 0-.005 3 2.105 2.105 0 0 0 1.47.62h.373v6.906A2.481 2.481 0 0 0 5.442 23.5h3.67a.674.674 0 0 0 .675-.674v-5.414c0-.623.507-1.13 1.13-1.13h2.166c.623 0 1.13.507 1.13 1.13v5.414c0 .372.302.674.674.674h3.671a2.481 2.481 0 0 0 2.479-2.478v-6.905h.347c.565 0 1.097-.22 1.497-.62a2.12 2.12 0 0 0 .001-2.994Zm-.954 2.04a.765.765 0 0 1-.544.226h-1.021a.674.674 0 0 0-.674.674v7.579c0 .623-.507 1.13-1.13 1.13H15.56v-4.74a2.481 2.481 0 0 0-2.478-2.478h-2.165a2.481 2.481 0 0 0-2.48 2.478v4.74H5.443c-.623 0-1.13-.507-1.13-1.13v-7.58a.674.674 0 0 0-.675-.673H2.634a.764.764 0 0 1-.562-.226.77.77 0 0 1 0-1.089h.001l9.383-9.383A.764.764 0 0 1 12 1.847c.206 0 .399.08.544.225l9.38 9.38.005.005c.299.3.298.788-.001 1.087Z"/></svg>