<svg xmlns="http://www.w3.org/2000/svg" width="162" height="45" fill="none"><g fill="#737376"><path d="M5.4 4.9v19.12h4.022V8.923h25.995v4.64h-2.316v-2.324H11.738v12.693H29.08v4.649H15.76v-2.333H5.469v12.692h33.97V19.881h-4.022v15.037H9.422v-4.65h2.316v2.333h21.363V19.91H15.76v-4.65h13.32v2.327h10.36V4.9H5.4ZM66.837 29.924H51.874v-4.452h2.814v1.638h9.33v-3.258H51.873V14.96h14.963v4.446h-2.82V17.78h-9.33v3.258h12.15v8.886ZM84.326 27.108H69.362v2.82h14.964v-2.82ZM84.326 21.036H69.362v2.82h14.964v-2.82ZM84.326 14.958H69.362v2.82h14.964v-2.82ZM117.357 17.78v3.258h-9.329V17.78h9.329v-2.82h-12.15v14.964h2.821v-6.072h9.329v3.258h2.814v-9.33h-2.814ZM135.714 14.96v3.707l-8.436 8.443h-.893V14.96h-2.815v14.964h4.871l10.093-10.087V14.96h-2.82ZM144.611 14.96v2.82h9.33v3.258h-9.33V17.78h-2.82v9.33h2.82v-3.258h9.33v6.072h2.814V14.96h-12.144ZM89.665 17.78h9.33v-2.82H86.85v14.964h12.143V27.11h-9.329v-9.33ZM101.815 17.78h-2.82v9.33h2.82v-9.33Z"/></g></svg>