<svg xmlns="http://www.w3.org/2000/svg" width="22" height="24" fill="none"><path fill="#fff" stroke="#fff" stroke-width=".178" d="M19.032 10.075h-.055V8.727a7.84 7.84 0 1 0-15.678 0v1.348h-.33c-1.21 0-2.146 1.073-2.146 2.31v3.439a2.173 2.173 0 0 0 2.145 2.228h2.036a.523.523 0 0 0 .495-.578v-6.739c0-.33-.192-.66-.495-.66h-.605V8.727a6.74 6.74 0 0 1 13.478 0v1.348h-.605c-.303 0-.495.33-.495.66v6.74a.523.523 0 0 0 .495.577h.633l-.056.082a4.346 4.346 0 0 1-3.493 1.733 2.723 2.723 0 0 0-5.391.523 2.75 2.75 0 0 0 2.75 2.723 2.833 2.833 0 0 0 1.981-.853c.352-.36.583-.822.66-1.32 1.72.006 3.34-.8 4.374-2.173l.522-.77c1.183-.083 1.926-.825 1.926-1.898V12.66c0-1.182-.88-2.585-2.146-2.585ZM4.4 16.952h-1.43a1.073 1.073 0 0 1-1.046-1.128v-3.438c0-.633.44-1.21 1.045-1.21h1.43v5.776Zm8.5 4.538c-.305.33-.734.52-1.183.523a1.678 1.678 0 0 1-1.65-1.623 1.623 1.623 0 1 1 3.245-.001c.023.41-.127.809-.413 1.101Zm7.179-5.391c0 .743-.716.853-1.046.853h-1.155v-5.777h1.155c.605 0 1.046.853 1.046 1.486v3.438Z"/></svg>