<svg xmlns="http://www.w3.org/2000/svg" width="18" height="24" fill="none"><path fill="#fff" d="M6.786.739a.674.674 0 0 0-.729.145L.755 6.195a.67.67 0 0 0 .946.946l4.166-4.167v17.364a.667.667 0 1 0 1.334.035V1.358a.673.673 0 0 0-.415-.62ZM17.244 16.865a.67.67 0 0 0-.945 0l-4.162 4.166V3.668a.667.667 0 1 0-1.335-.036v19.012a.666.666 0 0 0 1.14.473l5.306-5.307a.673.673 0 0 0-.004-.945Z"/><path stroke="#fff" stroke-width=".1" d="M6.786.739a.674.674 0 0 0-.729.145L.755 6.195a.67.67 0 0 0 .946.946l4.166-4.167v17.364a.667.667 0 1 0 1.334.035V1.358a.673.673 0 0 0-.415-.62ZM17.244 16.865a.67.67 0 0 0-.945 0l-4.162 4.166V3.668a.667.667 0 1 0-1.335-.036v19.012a.666.666 0 0 0 1.14.473l5.306-5.307a.673.673 0 0 0-.004-.945Z"/></svg>