<svg xmlns="http://www.w3.org/2000/svg" width="26" height="28" fill="none"><path fill="#fff" d="M7.196 14A6.705 6.705 0 0 1 .5 7.304 6.705 6.705 0 0 1 7.196.607a6.705 6.705 0 0 1 6.697 6.697A6.705 6.705 0 0 1 7.196 14Zm0-12.5a5.81 5.81 0 0 0-5.803 5.804 5.81 5.81 0 0 0 5.803 5.803A5.81 5.81 0 0 0 13 7.304 5.81 5.81 0 0 0 7.196 1.5Z"/><path fill="#fff" d="M7.643 6.889v-2.22c.759.13 1.34.568 1.34 1.077 0 .245.2.446.446.446.245 0 .446-.2.446-.446 0-1.014-.95-1.826-2.232-1.982v-.478a.448.448 0 0 0-.893 0v.478c-1.281.156-2.232.968-2.232 1.982 0 1.013.95 1.826 2.232 1.982v2.219c-.759-.13-1.34-.567-1.34-1.076 0-.246-.2-.447-.446-.447-.245 0-.446.201-.446.447 0 1.013.95 1.826 2.232 1.982v.473c0 .246.2.447.446.447s.447-.201.447-.447v-.473c1.281-.156 2.232-.969 2.232-1.982 0-1.014-.95-1.826-2.232-1.982ZM5.41 5.746c0-.51.58-.947 1.339-1.076v2.147c-.759-.13-1.34-.567-1.34-1.076v.005Zm2.232 2.053c.759.13 1.34.567 1.34 1.076 0 .51-.581.947-1.34 1.076V7.8ZM25.054 26.5h-.893V9.09c0-.246-.201-.447-.447-.447H19.25c-.245 0-.446.201-.446.447v4.017h-4.018c-.246 0-.447.201-.447.447v4.018h-4.018c-.245 0-.446.2-.446.446v4.018H5.857c-.245 0-.446.2-.446.446V26.5h-.893a.448.448 0 0 0 0 .893h20.536c.245 0 .446-.2.446-.446s-.2-.447-.446-.447ZM6.304 22.93h3.571V26.5H6.304V22.93Zm4.464-4.464h3.571V26.5h-3.571v-8.035ZM15.232 14h3.572v12.5h-3.572V14Zm4.464 12.5V9.536h3.572V26.5h-3.572Z"/><path stroke="#fff" stroke-width=".1" d="M7.196 14A6.705 6.705 0 0 1 .5 7.304 6.705 6.705 0 0 1 7.196.607a6.705 6.705 0 0 1 6.697 6.697A6.705 6.705 0 0 1 7.196 14Zm0-12.5a5.81 5.81 0 0 0-5.803 5.804 5.81 5.81 0 0 0 5.803 5.803A5.81 5.81 0 0 0 13 7.304 5.81 5.81 0 0 0 7.196 1.5Z"/><path stroke="#fff" stroke-width=".1" d="M7.643 6.889v-2.22c.759.13 1.34.568 1.34 1.077 0 .245.2.446.446.446.245 0 .446-.2.446-.446 0-1.014-.95-1.826-2.232-1.982v-.478a.448.448 0 0 0-.893 0v.478c-1.281.156-2.232.968-2.232 1.982 0 1.013.95 1.826 2.232 1.982v2.219c-.759-.13-1.34-.567-1.34-1.076 0-.246-.2-.447-.446-.447-.245 0-.446.201-.446.447 0 1.013.95 1.826 2.232 1.982v.473c0 .246.2.447.446.447s.447-.201.447-.447v-.473c1.281-.156 2.232-.969 2.232-1.982 0-1.014-.95-1.826-2.232-1.982ZM5.41 5.746c0-.51.58-.947 1.339-1.076v2.147c-.759-.13-1.34-.567-1.34-1.076v.005Zm2.232 2.053c.759.13 1.34.567 1.34 1.076 0 .51-.581.947-1.34 1.076V7.8ZM25.054 26.5h-.893V9.09c0-.246-.201-.447-.447-.447H19.25c-.245 0-.446.201-.446.447v4.017h-4.018c-.246 0-.447.201-.447.447v4.018h-4.018c-.245 0-.446.2-.446.446v4.018H5.857c-.245 0-.446.2-.446.446V26.5h-.893a.448.448 0 0 0 0 .893h20.536c.245 0 .446-.2.446-.446s-.2-.447-.446-.447ZM6.304 22.93h3.571V26.5H6.304V22.93Zm4.464-4.464h3.571V26.5h-3.571v-8.035ZM15.232 14h3.572v12.5h-3.572V14Zm4.464 12.5V9.536h3.572V26.5h-3.572Z"/></svg>