<svg width="50" height="50" viewBox="0 0 50 50" fill="none" xmlns="http://www.w3.org/2000/svg">
<path fill-rule="evenodd" clip-rule="evenodd" d="M24.4796 13.3466C21.3955 13.3466 21.088 13.6719 19.492 13.6719C18.162 13.6719 14.1719 10.4167 12.1769 10.4167C10.1819 10.4167 7.85441 11.5885 7.85441 14.974V18.8802C7.85844 19.9056 8.23102 23.0488 9.68923 22.2088C7.96522 24.2463 7.79107 26.622 7.81475 28.9221C7.35042 29.0563 6.87667 29.2074 6.4169 29.3646C4.99213 29.8518 3.4811 30.4731 2.79849 30.914C2.07358 31.3822 1.86545 32.3493 2.33362 33.0743C2.80179 33.7992 3.76897 34.0073 4.49388 33.5391C4.81933 33.3289 5.99649 32.811 7.42791 32.3216C7.58609 32.2675 7.74456 32.2147 7.90221 32.1637C7.9986 33.0676 8.23783 33.8924 8.59346 34.6441L8.54433 34.6699C7.69075 35.121 6.89869 35.6389 6.39368 35.9691C6.3063 36.0262 6.2275 36.0777 6.15847 36.1223C5.43357 36.5905 5.22544 37.5577 5.69361 38.2826C6.16178 39.0075 7.12896 39.2156 7.85386 38.7475C7.93954 38.6921 8.03084 38.6325 8.12719 38.5696C8.6383 38.236 9.2918 37.8094 10.0043 37.4329C10.1714 37.3446 10.3321 37.2645 10.4859 37.1925C14.0907 40.5724 20.5625 41.6667 24.4795 41.6667C28.3965 41.6667 34.8682 40.5725 38.473 37.1925C38.6268 37.2645 38.7875 37.3447 38.9546 37.4329C39.667 37.8094 40.3205 38.236 40.8316 38.5696C40.928 38.6325 41.0193 38.6921 41.105 38.7475C41.8299 39.2156 42.7971 39.0075 43.2653 38.2826C43.7334 37.5577 43.5253 36.5905 42.8004 36.1223C42.7314 36.0777 42.6526 36.0262 42.5652 35.9691C42.0602 35.6389 41.2681 35.121 40.4146 34.6699L40.3655 34.6441C40.7212 33.8924 40.9605 33.0674 41.0569 32.1635C41.2148 32.2145 41.3735 32.2674 41.5319 32.3216C42.9633 32.811 44.1405 33.3289 44.4659 33.5391C45.1908 34.0073 46.158 33.7992 46.6262 33.0743C47.0944 32.3493 46.8862 31.3822 46.1613 30.914C45.4787 30.4731 43.9677 29.8518 42.5429 29.3646C42.0829 29.2073 41.6089 29.0562 41.1443 28.9219C41.1679 26.6218 40.9938 24.2463 39.2698 22.2088C40.728 23.0488 41.1006 19.9056 41.1046 18.8802V14.9742C41.1046 11.5888 38.7771 10.4169 36.7821 10.4169C34.7871 10.4169 30.7971 13.6719 29.4671 13.6719C27.8711 13.6719 27.5636 13.3466 24.4796 13.3466ZM23.072 32.5008C23.4942 32.357 23.9922 32.2917 24.4795 32.2917C24.9668 32.2917 25.4649 32.357 25.887 32.5008C26.0941 32.5713 26.3474 32.6824 26.5705 32.862C26.7944 33.0424 27.0837 33.3763 27.0837 33.8542C27.0837 34.3321 26.7944 34.666 26.5705 34.8463C26.3474 35.0259 26.0941 35.137 25.887 35.2076C25.4649 35.3513 24.9668 35.4167 24.4795 35.4167C23.9922 35.4167 23.4942 35.3513 23.072 35.2075C22.865 35.137 22.6117 35.0259 22.3886 34.8463C22.1646 34.666 21.8754 34.3321 21.8754 33.8542C21.8754 33.3763 22.1646 33.0424 22.3886 32.862C22.6117 32.6824 22.865 32.5713 23.072 32.5008ZM29.0004 26.0427C29.2847 25.5669 29.8459 25 30.6878 25C31.5297 25 32.091 25.5669 32.3752 26.0427C32.6717 26.539 32.8129 27.1405 32.8129 27.7344C32.8129 28.3282 32.6717 28.9298 32.3752 29.426C32.091 29.9018 31.5297 30.4687 30.6878 30.4687C29.8459 30.4687 29.2847 29.9018 29.0004 29.426C28.704 28.9298 28.5628 28.3282 28.5628 27.7344C28.5628 27.1405 28.704 26.539 29.0004 26.0427ZM16.5838 26.0427C16.868 25.5669 17.4293 25 18.2712 25C19.1131 25 19.6744 25.5669 19.9586 26.0427C20.255 26.539 20.3962 27.1405 20.3962 27.7344C20.3962 28.3282 20.255 28.9298 19.9586 29.426C19.6744 29.9018 19.1131 30.4687 18.2712 30.4687C17.4293 30.4687 16.868 29.9018 16.5838 29.426C16.2874 28.9298 16.1462 28.3282 16.1462 27.7344C16.1462 27.1405 16.2874 26.539 16.5838 26.0427Z" fill="#FF8D29"/>
</svg>
