<svg width="70" height="70" viewBox="0 0 70 70" fill="none" xmlns="http://www.w3.org/2000/svg">
<path fill-rule="evenodd" clip-rule="evenodd" d="M35.0002 3.64575C33.792 3.64575 32.8127 4.62513 32.8127 5.83325L32.8127 37.8365L27.911 32.118C27.1248 31.2007 25.7438 31.0945 24.8266 31.8807C23.9093 32.6669 23.8031 34.0479 24.5893 34.9652L33.3393 45.1735C33.7549 45.6584 34.3616 45.9374 35.0002 45.9374C35.6387 45.9374 36.2454 45.6584 36.661 45.1735L45.411 34.9652C46.1973 34.0479 46.091 32.6669 45.1738 31.8807C44.2565 31.0945 42.8755 31.2007 42.0893 32.118L37.1877 37.8365L37.1877 5.83325C37.1877 4.62513 36.2083 3.64575 35.0002 3.64575Z" fill="#FF8D29"/>
<path d="M41.5625 26.2499L41.5625 27.3532C43.7022 26.5991 46.1746 26.9765 48.0209 28.559C50.7727 30.9177 51.0914 35.0606 48.7327 37.8124L39.9827 48.0207C38.7359 49.4753 36.9158 50.3124 35 50.3124C33.0843 50.3124 31.2642 49.4753 30.0174 48.0207L21.2674 37.8124C18.9087 35.0606 19.2274 30.9177 21.9792 28.559C23.8255 26.9765 26.2979 26.5991 28.4375 27.3532L28.4375 26.2499L23.3335 26.2499C15.0839 26.2499 10.9591 26.2499 8.39631 28.8127C5.8335 31.3755 5.8335 35.5003 5.8335 43.7499L5.8335 46.6666C5.8335 54.9162 5.8335 59.041 8.39631 61.6038C10.9591 64.1666 15.0839 64.1666 23.3335 64.1666L46.6668 64.1666C54.9164 64.1666 59.0412 64.1666 61.604 61.6038C64.1668 59.041 64.1668 54.9162 64.1668 46.6666L64.1668 43.7499C64.1668 35.5003 64.1668 31.3755 61.604 28.8127C59.0412 26.2499 54.9164 26.2499 46.6668 26.2499L41.5625 26.2499Z" fill="#FF8D29"/>
</svg>
