<svg xmlns="http://www.w3.org/2000/svg" width="24" height="24" viewBox="0 0 24 24" fill="none">
  <path d="M17.1427 11.9995C16.8271 11.9995 16.5712 12.2553 16.5712 12.5709V18.2851C16.5712 18.6007 16.3154 18.8566 15.9998 18.8566H5.71426C5.39866 18.8566 5.14283 18.6007 5.14283 18.2851V6.85672C5.14283 6.54112 5.39866 6.28528 5.71426 6.28528H12.5713C12.8869 6.28528 13.1427 6.02945 13.1427 5.71385C13.1427 5.39825 12.8869 5.14245 12.5713 5.14245H5.71426C4.7675 5.14245 4 5.90995 4 6.85672V18.2851C4 19.2319 4.7675 19.9994 5.71426 19.9994H15.9998C16.9466 19.9994 17.7141 19.2319 17.7141 18.2851V12.5709C17.7141 12.2553 17.4583 11.9995 17.1427 11.9995Z" fill="white"/>
  <path d="M19.3595 4.64078C18.9492 4.23043 18.3927 3.99994 17.8124 4.00001C17.2318 3.99833 16.6747 4.22922 16.2656 4.64115L8.7388 12.1673C8.67636 12.2302 8.62925 12.3067 8.60109 12.3907L7.45826 15.8193C7.35852 16.1187 7.5204 16.4422 7.81983 16.542C7.87792 16.5613 7.93875 16.5712 7.99996 16.5712C8.0613 16.5711 8.12227 16.5613 8.18053 16.5421L11.6091 15.3993C11.6933 15.3712 11.7698 15.3238 11.8325 15.261L19.3592 7.73426C20.2135 6.88007 20.2136 5.49507 19.3595 4.64078ZM18.5512 6.92681L11.1228 14.3553L8.90336 15.0964L9.6422 12.8799L17.0735 5.45141C17.4821 5.04367 18.1438 5.04434 18.5516 5.45288C18.7463 5.64805 18.8561 5.91225 18.8569 6.18797C18.8576 6.46517 18.7476 6.73114 18.5512 6.92681Z" fill="white"/>
</svg>