<svg width="26" height="24" viewBox="0 0 26 24" fill="none" xmlns="http://www.w3.org/2000/svg">
<g id="Vector">
<path d="M23.4839 12.8062V10.3869C23.4839 8.83083 22.2177 7.5643 20.6613 7.5643H18.2419V5.11995C18.2419 4.41592 17.877 3.77922 17.2657 3.41592C16.6411 3.04576 15.8875 3.03205 15.2629 3.37317L14.6129 3.69697V2.38245C14.6129 1.54898 14.1516 0.821565 13.4093 0.484872C12.6956 0.161485 11.8831 0.284066 11.2891 0.804629L3.57419 7.5643H3.32258C1.76613 7.5643 0.5 8.83083 0.5 10.3869V20.8707C0.5 22.4268 1.76613 23.6933 3.32258 23.6933H20.6613C22.2177 23.6933 23.4839 22.4268 23.4839 20.8707V18.4514C24.5956 18.4514 25.5 17.5469 25.5 16.4353V14.8224C25.5 13.7107 24.5956 12.8062 23.4839 12.8062ZM15.6359 4.08769C16.021 3.87761 16.4766 3.88527 16.854 4.10946C17.2181 4.32559 17.4355 4.70301 17.4355 5.11995V7.5643H8.66371L15.6359 4.08769ZM11.8206 1.41108C12.1786 1.09737 12.648 1.02519 13.0762 1.21955C13.429 1.37963 13.8065 1.76914 13.8065 2.38245V4.09898L6.85685 7.5643H4.79798L11.8206 1.41108ZM22.6774 20.8707C22.6774 21.9824 21.773 22.8869 20.6613 22.8869H3.32258C2.21089 22.8869 1.30645 21.9824 1.30645 20.8707V10.3869C1.30645 9.27518 2.21089 8.37075 3.32258 8.37075H20.6613C21.773 8.37075 22.6774 9.27518 22.6774 10.3869V12.8062H18.6452C16.629 12.8062 16.629 14.9308 16.629 15.6288C16.629 16.3268 16.629 18.4514 18.6452 18.4514H22.6774V20.8707ZM24.6935 16.4353C24.6935 17.1022 24.1508 17.6449 23.4839 17.6449H18.6452C17.919 17.6449 17.4355 17.3018 17.4355 15.6288C17.4355 13.9558 17.919 13.6127 18.6452 13.6127H23.4839C24.1508 13.6127 24.6935 14.1554 24.6935 14.8224V16.4353Z" fill="white"/>
<path d="M19.8548 14.0159C18.9653 14.0159 18.2419 14.7393 18.2419 15.6288C18.2419 16.5183 18.9653 17.2417 19.8548 17.2417C20.7444 17.2417 21.4677 16.5183 21.4677 15.6288C21.4677 14.7393 20.7444 14.0159 19.8548 14.0159ZM19.8548 16.4353C19.4101 16.4353 19.0484 16.0736 19.0484 15.6288C19.0484 15.184 19.4101 14.8224 19.8548 14.8224C20.2996 14.8224 20.6613 15.184 20.6613 15.6288C20.6613 16.0736 20.2996 16.4353 19.8548 16.4353Z" fill="white"/>
<path d="M23.4839 12.8062V10.3869C23.4839 8.83083 22.2177 7.5643 20.6613 7.5643H18.2419V5.11995C18.2419 4.41592 17.877 3.77922 17.2657 3.41592C16.6411 3.04576 15.8875 3.03205 15.2629 3.37317L14.6129 3.69697V2.38245C14.6129 1.54898 14.1516 0.821565 13.4093 0.484872C12.6956 0.161485 11.8831 0.284066 11.2891 0.804629L3.57419 7.5643H3.32258C1.76613 7.5643 0.5 8.83083 0.5 10.3869V20.8707C0.5 22.4268 1.76613 23.6933 3.32258 23.6933H20.6613C22.2177 23.6933 23.4839 22.4268 23.4839 20.8707V18.4514C24.5956 18.4514 25.5 17.5469 25.5 16.4353V14.8224C25.5 13.7107 24.5956 12.8062 23.4839 12.8062ZM15.6359 4.08769C16.021 3.87761 16.4766 3.88527 16.854 4.10946C17.2181 4.32559 17.4355 4.70301 17.4355 5.11995V7.5643H8.66371L15.6359 4.08769ZM11.8206 1.41108C12.1786 1.09737 12.648 1.02519 13.0762 1.21955C13.429 1.37963 13.8065 1.76914 13.8065 2.38245V4.09898L6.85685 7.5643H4.79798L11.8206 1.41108ZM22.6774 20.8707C22.6774 21.9824 21.773 22.8869 20.6613 22.8869H3.32258C2.21089 22.8869 1.30645 21.9824 1.30645 20.8707V10.3869C1.30645 9.27518 2.21089 8.37075 3.32258 8.37075H20.6613C21.773 8.37075 22.6774 9.27518 22.6774 10.3869V12.8062H18.6452C16.629 12.8062 16.629 14.9308 16.629 15.6288C16.629 16.3268 16.629 18.4514 18.6452 18.4514H22.6774V20.8707ZM24.6935 16.4353C24.6935 17.1022 24.1508 17.6449 23.4839 17.6449H18.6452C17.919 17.6449 17.4355 17.3018 17.4355 15.6288C17.4355 13.9558 17.919 13.6127 18.6452 13.6127H23.4839C24.1508 13.6127 24.6935 14.1554 24.6935 14.8224V16.4353Z" stroke="white" stroke-width="0.25"/>
<path d="M19.8548 14.0159C18.9653 14.0159 18.2419 14.7393 18.2419 15.6288C18.2419 16.5183 18.9653 17.2417 19.8548 17.2417C20.7444 17.2417 21.4677 16.5183 21.4677 15.6288C21.4677 14.7393 20.7444 14.0159 19.8548 14.0159ZM19.8548 16.4353C19.4101 16.4353 19.0484 16.0736 19.0484 15.6288C19.0484 15.184 19.4101 14.8224 19.8548 14.8224C20.2996 14.8224 20.6613 15.184 20.6613 15.6288C20.6613 16.0736 20.2996 16.4353 19.8548 16.4353Z" stroke="white" stroke-width="0.25"/>
</g>
</svg>
