<svg width="24" height="24" viewBox="0 0 24 24" fill="none" xmlns="http://www.w3.org/2000/svg">
<path id="Vector" d="M22.8822 10.5038C22.8815 10.5032 22.8809 10.5025 22.8804 10.502L13.4975 1.11938C13.0975 0.719264 12.5658 0.499023 12.0002 0.499023C11.4346 0.499023 10.9028 0.719264 10.5027 1.11938L1.12466 10.4973C1.1215 10.5004 1.11817 10.5038 1.11519 10.5069C0.293891 11.3329 0.295295 12.6732 1.11922 13.4971C1.49565 13.8737 1.99264 14.0917 2.5242 14.1146C2.54596 14.1168 2.56772 14.1178 2.58966 14.1178H2.96345V21.0227C2.96345 22.3892 4.07536 23.5009 5.44191 23.5009H9.11282C9.48504 23.5009 9.78671 23.1991 9.78671 22.8271V17.4135C9.78671 16.79 10.2941 16.2828 10.9176 16.2828H13.0828C13.7063 16.2828 14.2135 16.79 14.2135 17.4135V22.8271C14.2135 23.1991 14.5151 23.5009 14.8873 23.5009H18.5583C19.925 23.5009 21.0367 22.3892 21.0367 21.0227V14.1178H21.3835C21.9489 14.1178 22.4807 13.8976 22.8809 13.4973C23.7058 12.6721 23.7061 11.3294 22.8822 10.5038ZM21.9279 12.5444C21.7824 12.6898 21.589 12.77 21.3835 12.77H20.3628C19.9906 12.77 19.6889 13.0717 19.6889 13.4439V21.0227C19.6889 21.646 19.1818 22.1532 18.5583 22.1532H15.5612V17.4135C15.5612 16.047 14.4495 14.9351 13.0828 14.9351H10.9176C9.55085 14.9351 8.43894 16.047 8.43894 17.4135V22.1532H5.44191C4.81857 22.1532 4.31122 21.646 4.31122 21.0227V13.4439C4.31122 13.0717 4.00956 12.77 3.63734 12.77H2.63423C2.62371 12.7693 2.61335 12.7688 2.60265 12.7686C2.40188 12.7651 2.21358 12.6855 2.07249 12.5442C1.7724 12.2441 1.7724 11.7557 2.07249 11.4554C2.07266 11.4554 2.07266 11.4553 2.07284 11.4551L2.07337 11.4546L11.456 2.0723C11.6013 1.92682 11.7945 1.84679 12.0002 1.84679C12.2057 1.84679 12.3989 1.92682 12.5444 2.0723L21.9249 11.4526C21.9263 11.454 21.9279 11.4554 21.9293 11.4568C22.2278 11.7575 22.2272 12.2448 21.9279 12.5444Z" fill="white"/>
</svg>
