<svg xmlns="http://www.w3.org/2000/svg" width="22" height="24" viewBox="0 0 22 24" fill="none">
<path id="Vector" d="M19.0323 10.0744H18.9773V8.72662C18.9773 4.39703 15.4676 0.887207 11.1379 0.887207C6.80832 0.887207 3.29855 4.39703 3.29855 8.72662V10.0744H2.96849C1.75819 10.0744 0.822981 11.1472 0.822981 12.385V15.8234C0.792497 17.0231 1.7404 18.0204 2.94012 18.0508C2.94959 18.0511 2.95902 18.0513 2.96849 18.0514H5.00397C5.29228 18.0378 5.51504 17.7931 5.50145 17.5048C5.50098 17.4944 5.50019 17.484 5.49909 17.4737V10.7346C5.49909 10.4045 5.30655 10.0744 5.00397 10.0744H4.39882V8.72656C4.39882 5.00466 7.41605 1.98742 11.1379 1.98742C14.8598 1.98742 17.8771 5.00466 17.8771 8.72656V10.0744H17.2719C16.9693 10.0744 16.7768 10.4045 16.7768 10.7346V17.4737C16.7461 17.7607 16.9538 18.0183 17.2408 18.049C17.2512 18.0501 17.2615 18.0508 17.2719 18.0513H17.9045L17.8495 18.1338C17.0241 19.2308 15.729 19.8733 14.3562 19.8667C14.0557 18.3931 12.6174 17.4421 11.1438 17.7427C9.88362 17.9997 8.97505 19.1033 8.96489 20.3894C8.97994 21.8978 10.2071 23.1126 11.7156 23.1125C12.4623 23.1004 13.174 22.794 13.696 22.2598C14.0482 21.8992 14.2789 21.4376 14.3562 20.9395C16.0753 20.946 17.6965 20.1405 18.7297 18.7665L19.2524 17.9963C20.4351 17.9137 21.1778 17.1711 21.1778 16.0983V12.66C21.1779 11.4773 20.2977 10.0744 19.0323 10.0744ZM4.39882 16.9511H2.96849C2.37619 16.9367 1.90772 16.4449 1.92214 15.8526C1.9224 15.8428 1.92277 15.8331 1.92325 15.8233V12.385C1.92325 11.7523 2.36334 11.1747 2.96849 11.1747H4.39882V16.9511ZM12.8984 21.4897C12.5935 21.8202 12.1652 22.0095 11.7156 22.0124C10.8207 21.9981 10.0944 21.284 10.0652 20.3894C10.0648 19.4931 10.7911 18.7662 11.6874 18.7659C12.5837 18.7655 13.3106 19.4918 13.311 20.3881V20.3894C13.3339 20.7978 13.1842 21.1971 12.8984 21.4897ZM20.0776 16.0984C20.0776 16.8411 19.3624 16.9511 19.0323 16.9511H17.8771V11.1747H19.0323C19.6375 11.1747 20.0776 12.0274 20.0776 12.6601V16.0984Z" fill="white" stroke="white" stroke-width="0.177778"/>
</svg>