<svg width="24" height="24" viewBox="0 0 24 24" fill="none" xmlns="http://www.w3.org/2000/svg">
<g id="arrow">
<path id="Vector" d="M3.72186 12.7091L11.3199 20.3072C11.5928 20.6259 12.0725 20.663 12.3912 20.39C12.7099 20.1171 12.747 19.6374 12.474 19.3187C12.4486 19.289 12.4209 19.2613 12.3912 19.2359L6.09242 12.9295L19.3931 12.9295C19.8126 12.9295 20.1528 12.5893 20.1528 12.1696C20.1528 11.75 19.8126 11.4098 19.3931 11.4098L6.09242 11.4098L12.3912 5.11111C12.7099 4.83817 12.747 4.35851 12.474 4.0398C12.201 3.72109 11.7214 3.68394 11.4027 3.95694C11.373 3.98241 11.3453 4.01009 11.3199 4.0398L3.7218 11.6379C3.42725 11.9341 3.42725 12.4127 3.72186 12.7091Z" fill="white"/>
</g>
</svg>
