<svg width="50" height="50" viewBox="0 0 50 50" fill="none" xmlns="http://www.w3.org/2000/svg">
<path d="M17.3996 42.1705C19.1518 44.3979 21.9045 45.8333 25 45.8333C28.0955 45.8333 30.8482 44.3979 32.6004 42.1705C27.5551 42.8541 22.4449 42.8541 17.3996 42.1705Z" fill="#F87537"/>
<path d="M39.0607 18.75V20.2168C39.0607 21.9772 39.5631 23.6982 40.5046 25.163L42.8117 28.7524C44.9191 32.0309 43.3103 36.4873 39.6451 37.524C30.0568 40.2362 19.9432 40.2362 10.3549 37.524C6.68968 36.4873 5.08088 32.0309 7.18825 28.7524L9.49541 25.163C10.4369 23.6982 10.9393 21.9772 10.9393 20.2168V18.75C10.9393 10.6958 17.2345 4.16663 25 4.16663C32.7655 4.16663 39.0607 10.6958 39.0607 18.75Z" fill="#F87537"/>
</svg>
