<svg xmlns="http://www.w3.org/2000/svg" width="24" height="24" viewBox="0 0 24 24" fill="none">
  <path d="M11.2909 19.931L3.69285 12.333C3.37414 12.06 3.33698 11.5804 3.60999 11.2617C3.88292 10.943 4.36258 10.9058 4.68129 11.1788C4.711 11.2043 4.73875 11.232 4.76415 11.2617L11.0705 17.5604L11.0705 4.25978C11.0705 3.84019 11.4107 3.5 11.8304 3.5C12.25 3.5 12.5902 3.84019 12.5902 4.25978L12.5902 17.5604L18.8889 11.2617C19.1618 10.943 19.6415 10.9058 19.9602 11.1788C20.2789 11.4518 20.3161 11.9314 20.0431 12.2501C20.0176 12.2798 19.9899 12.3076 19.9602 12.333L12.3621 19.931C12.0659 20.2256 11.5873 20.2256 11.2909 19.931Z" fill="white"/>
</svg>