<svg xmlns="http://www.w3.org/2000/svg" width="24" height="24" viewBox="0 0 24 24" fill="none">
  <path d="M13.9285 20.2442H7.63573C6.18235 20.2442 5 19.0619 5 17.6086V8.68025C5 7.22691 6.18235 6.04459 7.63573 6.04459H13.9285C15.3819 6.04459 16.5643 7.22691 16.5643 8.68025V17.6086C16.5643 19.0619 15.3819 20.2442 13.9285 20.2442ZM7.63573 7.36242C6.9091 7.36242 6.31787 7.95364 6.31787 8.68025V17.6086C6.31787 18.3352 6.9091 18.9264 7.63573 18.9264H13.9285C14.6552 18.9264 15.2464 18.3352 15.2464 17.6086V8.68025C15.2464 7.95364 14.6552 7.36242 13.9285 7.36242H7.63573ZM19.2 15.9613V6.01164C19.2 4.55829 18.0177 3.37598 16.5643 3.37598H9.25012C8.88616 3.37598 8.59118 3.67094 8.59118 4.03489C8.59118 4.39884 8.88616 4.69381 9.25012 4.69381H16.5643C17.2909 4.69381 17.8821 5.28503 17.8821 6.01164V15.9613C17.8821 16.3252 18.1771 16.6202 18.5411 16.6202C18.905 16.6202 19.2 16.3252 19.2 15.9613Z" fill="white"/>
</svg>