<svg xmlns="http://www.w3.org/2000/svg" width="24" height="24" viewBox="0 0 24 24" fill="none">
    <path d="M18.5577 5.07722H15.3846V4.5003C15.3846 3.54596 14.6082 2.76953 13.6538 2.76953H11.3462C10.3918 2.76953 9.61538 3.54596 9.61538 4.5003V5.07722H6.44231C5.64702 5.07722 5 5.72424 5 6.51953V8.53876C5 8.85737 5.25832 9.11568 5.57692 9.11568H5.89221L6.39064 19.5826C6.43466 20.507 7.19404 21.2311 8.11942 21.2311H16.8806C17.806 21.2311 18.5654 20.507 18.6094 19.5826L19.1078 9.11568H19.4231C19.7417 9.11568 20 8.85737 20 8.53876V6.51953C20 5.72424 19.353 5.07722 18.5577 5.07722ZM10.7692 4.5003C10.7692 4.1822 11.0281 3.92338 11.3462 3.92338H13.6538C13.9719 3.92338 14.2308 4.1822 14.2308 4.5003V5.07722H10.7692V4.5003ZM6.15385 6.51953C6.15385 6.36048 6.28326 6.23107 6.44231 6.23107H18.5577C18.7167 6.23107 18.8462 6.36048 18.8462 6.51953V7.96184C18.6684 7.96184 6.89061 7.96184 6.15385 7.96184V6.51953ZM17.4568 19.5277C17.4421 19.8359 17.189 20.0772 16.8806 20.0772H8.11942C7.81095 20.0772 7.55782 19.8359 7.54318 19.5277L7.04736 9.11568H17.9526L17.4568 19.5277Z" fill="white" />
    <path d="M12.5 18.9234C12.8186 18.9234 13.0769 18.6651 13.0769 18.3465V10.8465C13.0769 10.5278 12.8186 10.2695 12.5 10.2695C12.1814 10.2695 11.9231 10.5278 11.9231 10.8465V18.3465C11.9231 18.6651 12.1814 18.9234 12.5 18.9234Z" fill="white" />
    <path d="M15.3846 18.9234C15.7032 18.9234 15.9615 18.6651 15.9615 18.3465V10.8465C15.9615 10.5278 15.7032 10.2695 15.3846 10.2695C15.066 10.2695 14.8077 10.5278 14.8077 10.8465V18.3465C14.8077 18.6651 15.066 18.9234 15.3846 18.9234Z" fill="white" />
    <path d="M9.61538 18.9234C9.93399 18.9234 10.1923 18.6651 10.1923 18.3465V10.8465C10.1923 10.5278 9.93399 10.2695 9.61538 10.2695C9.29678 10.2695 9.03846 10.5278 9.03846 10.8465V18.3465C9.03846 18.6651 9.29674 18.9234 9.61538 18.9234Z" fill="white" />
</svg>