<svg width="26" height="26" viewBox="0 0 26 26" fill="none" xmlns="http://www.w3.org/2000/svg">
<g id="Group">
<path id="Shape" fill-rule="evenodd" clip-rule="evenodd" d="M24.56 13.2736C24.56 12.4198 24.4834 11.5987 24.3411 10.8105H13V15.4685H19.4806C19.2015 16.9737 18.3531 18.249 17.0778 19.1029V22.1243H20.9694C23.2464 20.0279 24.56 16.9409 24.56 13.2736Z" fill="#4285F4"/>
<path id="Shape_2" fill-rule="evenodd" clip-rule="evenodd" d="M13.0001 25.0416C16.2514 25.0416 18.9772 23.9633 20.9696 22.1242L17.0779 19.1029C15.9996 19.8254 14.6203 20.2523 13.0001 20.2523C9.86383 20.2523 7.20919 18.1341 6.26228 15.2878H2.23926V18.4077C4.22066 22.3432 8.29294 25.0416 13.0001 25.0416Z" fill="#34A853"/>
<path id="Shape_3" fill-rule="evenodd" clip-rule="evenodd" d="M6.26231 15.288C6.02148 14.5655 5.88464 13.7938 5.88464 13.0001C5.88464 12.2064 6.02148 11.4347 6.26231 10.7122V7.59229H2.23929C1.42374 9.21791 0.958496 11.057 0.958496 13.0001C0.958496 14.9432 1.42374 16.7823 2.23929 18.4079L6.26231 15.288Z" fill="#FBBC05"/>
<path id="Shape_4" fill-rule="evenodd" clip-rule="evenodd" d="M13.0001 5.74756C14.7681 5.74756 16.3554 6.35512 17.6034 7.54834L21.0571 4.09456C18.9717 2.15147 16.2459 0.958252 13.0001 0.958252C8.29294 0.958252 4.22066 3.65668 2.23926 7.59213L6.26228 10.712C7.20919 7.8658 9.86383 5.74756 13.0001 5.74756Z" fill="#EA4335"/>
</g>
</svg>
