<svg width="70" height="70" viewBox="0 0 70 70" fill="none" xmlns="http://www.w3.org/2000/svg">
<path d="M59.1196 47.4394L61.1774 35.5401C61.6914 32.5681 59.4058 29.8497 56.393 29.8497H41.2815C39.7838 29.8497 38.6433 28.5054 38.8857 27.0258L40.8185 15.2291C41.1325 13.3127 41.0428 11.3516 40.5552 9.47193C40.1513 7.91476 38.9499 6.66442 37.3699 6.15684L36.9471 6.02101C35.9922 5.71425 34.9499 5.78564 34.0497 6.21946C33.0587 6.69697 32.3338 7.56796 32.065 8.60382L30.6776 13.9526C30.2361 15.6544 29.593 17.2971 28.7639 18.8493C27.5525 21.1171 25.6794 22.9322 23.7325 24.6099L19.5362 28.226C18.353 29.2455 17.7316 30.7724 17.8663 32.3295L20.2351 59.7248C20.4524 62.2376 22.5532 64.1666 25.0726 64.1666H38.6311C48.7848 64.1666 57.4504 57.092 59.1196 47.4394Z" fill="#FF8D29"/>
<path fill-rule="evenodd" clip-rule="evenodd" d="M8.65569 27.6648C9.82604 27.6143 10.8285 28.4947 10.9294 29.6618L13.7632 62.435C13.9452 64.5402 12.287 66.3547 10.1696 66.3547C8.1751 66.3547 6.5625 64.7367 6.5625 62.746V29.8503C6.5625 28.6788 7.48534 27.7153 8.65569 27.6648Z" fill="#FF8D29"/>
</svg>
