<svg xmlns="http://www.w3.org/2000/svg" width="16" height="17" viewBox="0 0 16 17" fill="none">
  <path d="M11.4526 4.31094L4.28911 4.31091C4.01021 4.28933 3.76658 4.49793 3.74503 4.77687C3.72345 5.05577 3.93205 5.2994 4.21099 5.32094C4.237 5.32294 4.26313 5.32298 4.28911 5.32094L10.2312 5.32454L3.96124 11.5945C3.76345 11.7923 3.76345 12.1131 3.96127 12.3109C4.1591 12.5087 4.4798 12.5087 4.6776 12.3109L10.9476 6.0409L10.9476 11.9794C10.926 12.2583 11.1346 12.5019 11.4135 12.5235C11.6925 12.545 11.9361 12.3365 11.9576 12.0575C11.9596 12.0315 11.9596 12.0054 11.9576 11.9794L11.9576 4.81589C11.9568 4.53739 11.7312 4.31177 11.4526 4.31094Z" fill="white"/>
</svg>