<svg xmlns="http://www.w3.org/2000/svg" width="24" height="24" viewBox="0 0 24 24" fill="none">
  <path d="M16.9832 9.64467H15.7352V6.79685C15.7352 4.77702 14.0573 3.13379 11.9949 3.13379C9.93248 3.13379 8.25458 4.77702 8.25458 6.79685V9.64467H7.00909C5.86332 9.64467 4.93115 10.5768 4.93115 11.7226V18.7876C4.93115 19.9334 5.86332 20.8656 7.00909 20.8656H16.9832C18.129 20.8656 19.0612 19.9334 19.0612 18.7876V11.7226C19.0612 10.5768 18.129 9.64467 16.9832 9.64467ZM9.63987 6.79685C9.63987 5.54088 10.6963 4.51908 11.9949 4.51908C13.2934 4.51908 14.3499 5.54088 14.3499 6.79685V9.64467H9.63987V6.79685ZM17.6759 18.7876C17.6759 19.1695 17.3651 19.4803 16.9832 19.4803H7.00909C6.62717 19.4803 6.31645 19.1695 6.31645 18.7876V11.7226C6.31645 11.3407 6.62717 11.03 7.00909 11.03H16.9832C17.3651 11.03 17.6759 11.3407 17.6759 11.7226V18.7876Z" fill="white"/>
  <path d="M11.9962 13.0386C11.2884 13.0386 10.7148 13.6123 10.7148 14.32C10.7148 14.7719 10.9489 15.1689 11.3022 15.397V16.9175C11.3022 17.3 11.6123 17.6101 11.9949 17.6101C12.3774 17.6101 12.6875 17.3 12.6875 16.9175V15.3987C13.0423 15.1708 13.2775 14.773 13.2775 14.32C13.2775 13.6123 12.7039 13.0386 11.9962 13.0386Z" fill="white"/>
</svg>