<svg width="70" height="70" viewBox="0 0 70 70" fill="none" xmlns="http://www.w3.org/2000/svg">
<path d="M18.1479 13.4198C19.4446 12.5534 20.806 11.8019 22.2167 11.1702C26.218 9.37825 28.2187 8.48228 30.8803 10.2066C33.5418 11.931 33.5418 14.7596 33.5418 20.4167V24.7917C33.5418 30.2914 33.5418 33.0413 35.2504 34.7498C36.9589 36.4584 39.7088 36.4584 45.2085 36.4584H49.5835C55.2407 36.4584 58.0692 36.4584 59.7936 39.12C61.5179 41.7816 60.622 43.7822 58.8301 47.7835C58.1983 49.1942 57.4469 50.5557 56.5805 51.8523C53.5358 56.4089 49.2084 59.9604 44.1454 62.0575C39.0823 64.1547 33.5111 64.7034 28.1362 63.6343C22.7613 62.5652 17.8242 59.9262 13.9491 56.0511C10.074 52.1761 7.43505 47.2389 6.36592 41.864C5.29678 36.4891 5.8455 30.9179 7.94268 25.8549C10.0399 20.7918 13.5913 16.4644 18.1479 13.4198Z" fill="#FF8D29"/>
<path d="M62.5511 20.6179C60.1833 14.6075 55.3926 9.81684 49.3823 7.44907C44.8861 5.67781 40.8335 9.75085 40.8335 14.5833V26.25C40.8335 27.8608 42.1393 29.1667 43.7502 29.1667H55.4168C60.2493 29.1667 64.3224 25.1141 62.5511 20.6179Z" fill="#FF8D29"/>
</svg>
