<svg xmlns="http://www.w3.org/2000/svg" width="24" height="23" viewBox="0 0 24 23" fill="none">
  <path d="M8.97287 1.37252L8.78389 0.733194L8.97287 1.37252ZM10.0858 1.79789L9.53098 2.16756V2.16756L10.0858 1.79789ZM4.65602 3.86817L5.1152 4.35149L5.1152 4.35149L4.65602 3.86817ZM4.46761 5.04521L5.06518 4.74965L4.46761 5.04521ZM5.14388 6.41254L5.72126 6.74582L5.89963 6.43681L5.74145 6.11699L5.14388 6.41254ZM4.07721 8.26046L4.12023 8.92573L4.47624 8.90272L4.65459 8.59374L4.07721 8.26046ZM2.55172 8.35909L2.59474 9.02436H2.59474L2.55172 8.35909ZM1.62691 9.11138L2.27526 9.2666V9.2666L1.62691 9.11138ZM1.62646 14.0967L2.27483 13.9416L2.27483 13.9416L1.62646 14.0967ZM2.55186 14.8487L2.59426 14.1834H2.59426L2.55186 14.8487ZM4.07721 14.9459L4.65459 14.6126L4.47604 14.3033L4.11961 14.2806L4.07721 14.9459ZM5.14388 16.7938L5.74154 17.0892L5.89957 16.7694L5.72126 16.4605L5.14388 16.7938ZM4.46704 18.1633L5.0647 18.4587L4.46704 18.1633ZM4.65559 19.3401L5.11478 18.8568L4.65559 19.3401ZM8.97287 21.8359L8.78391 22.4752L8.78391 22.4752L8.97287 21.8359ZM10.0858 21.4105L10.6406 21.7802L10.0858 21.4105ZM10.934 20.1375V19.4709H10.5771L10.3792 19.7679L10.934 20.1375ZM13.0673 20.1375L13.6221 19.7679L13.4242 19.4709H13.0673V20.1375ZM13.9155 21.4105L13.3607 21.7802V21.7802L13.9155 21.4105ZM15.0284 21.8359L15.2174 22.4752L15.2174 22.4752L15.0284 21.8359ZM19.3457 19.3401L19.8049 19.8234V19.8234L19.3457 19.3401ZM19.5343 18.1633L18.9366 18.4587L19.5343 18.1633ZM18.8574 16.7938L18.28 16.4605L18.1017 16.7694L18.2598 17.0892L18.8574 16.7938ZM19.9241 14.9459L19.8817 14.2806L19.5253 14.3033L19.3467 14.6126L19.9241 14.9459ZM21.4494 14.8487L21.407 14.1834H21.407L21.4494 14.8487ZM22.3748 14.0967L21.7265 13.9416V13.9416L22.3748 14.0967ZM22.3744 9.11138L21.726 9.2666V9.2666L22.3744 9.11138ZM21.4496 8.35909L21.4066 9.02436L21.4496 8.35909ZM19.9241 8.26046L19.3467 8.59374L19.5251 8.90272L19.8811 8.92573L19.9241 8.26046ZM18.8574 6.41254L18.2598 6.11699L18.1017 6.43681L18.28 6.74582L18.8574 6.41254ZM19.5337 5.04521L18.9361 4.74965L18.9361 4.74965L19.5337 5.04521ZM19.3453 3.86817L18.8861 4.35149V4.35149L19.3453 3.86817ZM15.0284 1.37252L14.8395 2.01184V2.01184L15.0284 1.37252ZM13.9155 1.79789L14.4703 2.16756V2.16756L13.9155 1.79789ZM13.0673 3.07087V3.73754H13.4242L13.6221 3.44054L13.0673 3.07087ZM10.934 3.07087L10.3792 3.44054L10.5771 3.73754H10.934V3.07087ZM9.16185 2.01184C9.27848 1.97736 9.43343 2.02115 9.53098 2.16756L10.6406 1.42822C10.2496 0.84142 9.51219 0.517915 8.78389 0.733194L9.16185 2.01184ZM5.1152 4.35149C6.24621 3.27696 7.62755 2.46536 9.16185 2.01184L8.78389 0.733194C7.04313 1.24775 5.47757 2.16807 4.19684 3.38485L5.1152 4.35149ZM5.06518 4.74965C4.98718 4.59195 5.02667 4.4356 5.1152 4.35149L4.19684 3.38485C3.64628 3.90791 3.55723 4.70831 3.87004 5.34076L5.06518 4.74965ZM5.74145 6.11699L5.06518 4.74965L3.87004 5.34076L4.54631 6.7081L5.74145 6.11699ZM4.65459 8.59374L5.72126 6.74582L4.5665 6.07926L3.49983 7.92718L4.65459 8.59374ZM2.59474 9.02436L4.12023 8.92573L4.0342 7.59518L2.50871 7.69381L2.59474 9.02436ZM2.27526 9.2666C2.3036 9.14821 2.41899 9.03573 2.59474 9.02436L2.50871 7.69381C1.80453 7.73934 1.15553 8.21702 0.978569 8.95616L2.27526 9.2666ZM2.00065 11.6042C2.00065 10.7981 2.09583 10.016 2.27526 9.2666L0.978569 8.95616C0.775006 9.80642 0.667318 10.6926 0.667318 11.6042H2.00065ZM2.27483 13.9416C2.0957 13.193 2.00065 12.4101 2.00065 11.6042H0.667318C0.667318 12.5152 0.774794 13.4022 0.9781 14.2519L2.27483 13.9416ZM2.59426 14.1834C2.41836 14.1721 2.30309 14.0597 2.27483 13.9416L0.9781 14.2519C1.15512 14.9917 1.80503 15.4691 2.50947 15.514L2.59426 14.1834ZM4.11961 14.2806L2.59426 14.1834L2.50947 15.514L4.03482 15.6112L4.11961 14.2806ZM5.72126 16.4605L4.65459 14.6126L3.49983 15.2792L4.5665 17.1271L5.72126 16.4605ZM5.0647 18.4587L5.74154 17.0892L4.54622 16.4984L3.86938 17.868L5.0647 18.4587ZM5.11478 18.8568C5.02627 18.7727 4.98677 18.6164 5.0647 18.4587L3.86938 17.868C3.55685 18.5003 3.646 19.3005 4.1964 19.8234L5.11478 18.8568ZM9.16184 21.1966C7.62735 20.743 6.24584 19.9314 5.11478 18.8568L4.1964 19.8234C5.47721 21.0403 7.04295 21.9607 8.78391 22.4752L9.16184 21.1966ZM9.53098 21.0409C9.43342 21.1873 9.27847 21.2311 9.16184 21.1966L8.78391 22.4752C9.5122 22.6905 10.2496 22.367 10.6406 21.7802L9.53098 21.0409ZM10.3792 19.7679L9.53098 21.0409L10.6406 21.7802L11.4888 20.5072L10.3792 19.7679ZM13.0673 19.4709H10.934V20.8042H13.0673V19.4709ZM14.4703 21.0409L13.6221 19.7679L12.5125 20.5072L13.3607 21.7802L14.4703 21.0409ZM14.8395 21.1966C14.7228 21.2311 14.5679 21.1873 14.4703 21.0409L13.3607 21.7802C13.7517 22.367 14.4891 22.6905 15.2174 22.4752L14.8395 21.1966ZM18.8865 18.8568C17.7555 19.9314 16.374 20.743 14.8395 21.1966L15.2174 22.4752C16.9584 21.9607 18.5241 21.0403 19.8049 19.8234L18.8865 18.8568ZM18.9366 18.4587C19.0145 18.6164 18.975 18.7727 18.8865 18.8568L19.8049 19.8234C20.3553 19.3005 20.4445 18.5003 20.1319 17.868L18.9366 18.4587ZM18.2598 17.0892L18.9366 18.4587L20.1319 17.868L19.4551 16.4984L18.2598 17.0892ZM19.3467 14.6126L18.28 16.4605L19.4348 17.1271L20.5015 15.2792L19.3467 14.6126ZM21.407 14.1834L19.8817 14.2806L19.9665 15.6112L21.4918 15.514L21.407 14.1834ZM21.7265 13.9416C21.6982 14.0597 21.5829 14.1721 21.407 14.1834L21.4918 15.514C22.1963 15.4691 22.8462 14.9917 23.0232 14.2519L21.7265 13.9416ZM22.0007 11.6042C22.0007 12.4101 21.9056 13.193 21.7265 13.9416L23.0232 14.2519C23.2265 13.4022 23.334 12.5152 23.334 11.6042H22.0007ZM21.726 9.2666C21.9055 10.016 22.0007 10.7981 22.0007 11.6042H23.334C23.334 10.6926 23.2263 9.80642 23.0227 8.95616L21.726 9.2666ZM21.4066 9.02436C21.5823 9.03573 21.6977 9.14821 21.726 9.2666L23.0227 8.95616C22.8458 8.21702 22.1968 7.73934 21.4926 7.69381L21.4066 9.02436ZM19.8811 8.92573L21.4066 9.02436L21.4926 7.69381L19.9671 7.59518L19.8811 8.92573ZM18.28 6.74582L19.3467 8.59374L20.5015 7.92718L19.4348 6.07926L18.28 6.74582ZM18.9361 4.74965L18.2598 6.11699L19.455 6.7081L20.1313 5.34076L18.9361 4.74965ZM18.8861 4.35149C18.9746 4.4356 19.0141 4.59195 18.9361 4.74965L20.1313 5.34076C20.4441 4.7083 20.355 3.90791 19.8045 3.38485L18.8861 4.35149ZM14.8395 2.01184C16.3737 2.46536 17.7551 3.27696 18.8861 4.35149L19.8045 3.38485C18.5237 2.16807 16.9582 1.24775 15.2174 0.733195L14.8395 2.01184ZM14.4703 2.16756C14.5679 2.02115 14.7228 1.97736 14.8395 2.01184L15.2174 0.733195C14.4891 0.517915 13.7517 0.84142 13.3607 1.42822L14.4703 2.16756ZM13.6221 3.44054L14.4703 2.16756L13.3607 1.42822L12.5125 2.70121L13.6221 3.44054ZM10.934 3.73754H13.0673V2.40421H10.934V3.73754ZM9.53098 2.16756L10.3792 3.44054L11.4888 2.70121L10.6406 1.42822L9.53098 2.16756ZM15.6007 11.6042C15.6007 13.5924 13.9889 15.2042 12.0007 15.2042V16.5375C14.7253 16.5375 16.934 14.3288 16.934 11.6042H15.6007ZM12.0007 8.00421C13.9889 8.00421 15.6007 9.61598 15.6007 11.6042H16.934C16.934 8.8796 14.7253 6.67087 12.0007 6.67087V8.00421ZM8.40065 11.6042C8.40065 9.61598 10.0124 8.00421 12.0007 8.00421V6.67087C9.27605 6.67087 7.06732 8.8796 7.06732 11.6042H8.40065ZM12.0007 15.2042C10.0124 15.2042 8.40065 13.5924 8.40065 11.6042H7.06732C7.06732 14.3288 9.27605 16.5375 12.0007 16.5375V15.2042Z" fill="white"/>
</svg>