<svg xmlns="http://www.w3.org/2000/svg" width="22" height="22" viewBox="0 0 22 22" fill="none">
  <path d="M20.9995 10.333H12.5553C12.1873 10.333 11.8886 10.0344 11.8886 9.66637C11.8886 9.29838 12.1873 8.99973 12.5553 8.99973H20.9995C21.3675 8.99973 21.6661 9.29838 21.6661 9.66637C21.6661 10.0344 21.3675 10.333 20.9995 10.333Z" fill="white"/>
  <path d="M17.6663 13.666C17.4955 13.666 17.325 13.6011 17.1951 13.4705C16.9347 13.21 16.9347 12.7878 17.1951 12.5274L20.0573 9.66531L17.1951 6.80309C16.9347 6.54268 16.9347 6.1205 17.1951 5.86009C17.4557 5.59952 17.8778 5.59952 18.1383 5.86009L21.4715 9.19332C21.7319 9.45372 21.7319 9.87591 21.4715 10.1363L18.1383 13.4695C18.0076 13.6011 17.837 13.666 17.6663 13.666Z" fill="white"/>
  <path d="M7.44444 21.6662C7.25418 21.6662 7.07368 21.6395 6.89335 21.5835L1.54407 19.8013C0.816228 19.5471 0.333496 18.8689 0.333496 18.1108V2.11127C0.333496 1.13083 1.13083 0.333496 2.11127 0.333496C2.30137 0.333496 2.48187 0.360188 2.66236 0.416176L8.01148 2.19835C8.73948 2.45257 9.22205 3.13077 9.22205 3.88889V19.8884C9.22205 20.8688 8.42488 21.6662 7.44444 21.6662ZM2.11127 1.66679C1.86681 1.66679 1.66679 1.86681 1.66679 2.11127V18.1108C1.66679 18.3001 1.7939 18.476 1.97521 18.5391L7.29942 20.3133C7.33767 20.3257 7.38747 20.3329 7.44444 20.3329C7.6889 20.3329 7.88876 20.1328 7.88876 19.8884V3.88889C7.88876 3.6996 7.76165 3.52366 7.58034 3.46051L2.25612 1.68632C2.21788 1.67395 2.16807 1.66679 2.11127 1.66679Z" fill="white"/>
  <path d="M13.8886 7.44444C13.5206 7.44444 13.2219 7.14578 13.2219 6.77779V2.77792C13.2219 2.16547 12.7234 1.66679 12.1109 1.66679H2.11127C1.74328 1.66679 1.44461 1.36813 1.44461 1.00014C1.44461 0.632152 1.74328 0.333496 2.11127 0.333496H12.1109C13.4594 0.333496 14.5552 1.42949 14.5552 2.77792V6.77779C14.5552 7.14578 14.2565 7.44444 13.8886 7.44444Z" fill="white"/>
  <path d="M12.111 18.9996H8.55543C8.18744 18.9996 7.88878 18.7009 7.88878 18.3329C7.88878 17.9649 8.18744 17.6663 8.55543 17.6663H12.111C12.7234 17.6663 13.2219 17.1676 13.2219 16.5551V12.5553C13.2219 12.1873 13.5206 11.8886 13.8886 11.8886C14.2566 11.8886 14.5552 12.1873 14.5552 12.5553V16.5551C14.5552 17.9036 13.4594 18.9996 12.111 18.9996Z" fill="white"/>
</svg>