<svg width="50" height="50" viewBox="0 0 50 50" fill="none" xmlns="http://www.w3.org/2000/svg">
<path d="M19.0689 11.2675C21.7078 6.53361 23.0272 4.16669 24.9998 4.16669C26.9725 4.16669 28.2919 6.53361 30.9307 11.2675L31.6135 12.4922C32.3633 13.8374 32.7383 14.51 33.3229 14.9538C33.9075 15.3976 34.6356 15.5623 36.0917 15.8918L37.4175 16.1917C42.5418 17.3512 45.104 17.9309 45.7135 19.8911C46.3231 21.8514 44.5764 23.8939 41.083 27.979L40.1792 29.0359C39.1865 30.1968 38.6901 30.7772 38.4668 31.4953C38.2435 32.2133 38.3185 32.9878 38.4686 34.5366L38.6053 35.9467C39.1334 41.3971 39.3975 44.1223 37.8016 45.3338C36.2057 46.5453 33.8068 45.4407 29.0089 43.2316L27.7676 42.6601C26.4042 42.0323 25.7225 41.7185 24.9998 41.7185C24.2772 41.7185 23.5955 42.0323 22.2321 42.6601L20.9908 43.2316C16.1929 45.4407 13.794 46.5453 12.1981 45.3338C10.6022 44.1223 10.8663 41.3971 11.3944 35.9467L11.5311 34.5366C11.6811 32.9878 11.7562 32.2133 11.5329 31.4953C11.3096 30.7772 10.8132 30.1968 9.8205 29.0359L8.91671 27.979C5.42327 23.8939 3.67655 21.8514 4.28613 19.8911C4.89571 17.9309 7.45787 17.3512 12.5822 16.1917L13.9079 15.8918C15.3641 15.5623 16.0922 15.3976 16.6768 14.9538C17.2614 14.51 17.6363 13.8374 18.3862 12.4922L19.0689 11.2675Z" fill="#FF8D29"/>
</svg>
