<svg xmlns="http://www.w3.org/2000/svg" viewBox="0 0 207.6 207.6" style="enable-background:new 0 0 207.628 207.628" xml:space="preserve"><circle cx="103.8" cy="103.8" r="45.9"/><path d="M103.8 157.2a53.4 53.4 0 1 1 .1-106.9 53.4 53.4 0 0 1 0 106.9zm0-91.8a38.4 38.4 0 1 0 .1 76.9 38.4 38.4 0 0 0 0-76.9zM103.8 39.4a7.5 7.5 0 0 1-7.5-7.5V7.5a7.5 7.5 0 0 1 15 0v24.4c0 4.1-3.3 7.5-7.5 7.5zM103.8 207.6a7.5 7.5 0 0 1-7.5-7.5v-24.4a7.5 7.5 0 0 1 15 0v24.4c0 4.2-3.3 7.5-7.5 7.5zM200.1 111.3h-24.4a7.5 7.5 0 0 1 0-15h24.4a7.5 7.5 0 0 1 0 15zM31.9 111.3H7.5a7.5 7.5 0 0 1 0-15h24.4a7.5 7.5 0 0 1 0 15zM154.7 60.5a7.5 7.5 0 0 1-5.3-12.9l17.2-17.2A7.5 7.5 0 1 1 177.2 41L160 58.3a7.5 7.5 0 0 1-5.3 2.2zM35.7 179.4a7.5 7.5 0 0 1-5.3-12.8l17.2-17.2A7.5 7.5 0 1 1 58.3 160L41 177.2a7.5 7.5 0 0 1-5.3 2.2zM172 179.4c-2 0-4-.7-5.4-2.2L149.4 160a7.5 7.5 0 1 1 10.6-10.6l17.2 17.2a7.5 7.5 0 0 1-5.3 12.8zM53 60.5c-2 0-3.9-.8-5.4-2.2L30.4 41A7.5 7.5 0 1 1 41 30.4l17.3 17.2A7.5 7.5 0 0 1 53 60.5z"/></svg>