<svg width="18" height="24" viewBox="0 0 18 24" fill="none" xmlns="http://www.w3.org/2000/svg">
<g id="Vector">
<path d="M6.78613 0.738557C6.5343 0.636939 6.24712 0.694376 6.05713 0.884357L0.755319 6.19501C0.494646 6.45568 0.494646 6.87982 0.755319 7.1405C1.01599 7.40117 1.44014 7.40117 1.70081 7.1405L5.86715 2.97415V20.3376C5.85832 20.7087 6.14992 21.0136 6.51663 21.0224C6.88775 21.0312 7.19261 20.7396 7.20144 20.3729C7.20144 20.3597 7.20144 20.3508 7.20144 20.3376V1.3571C7.20144 1.08759 7.03797 0.844594 6.78613 0.738557Z" fill="white"/>
<path d="M17.244 16.8649C16.9833 16.6042 16.5592 16.6042 16.2985 16.8649L12.1366 21.0312V3.66781C12.1454 3.29668 11.8538 2.99182 11.4871 2.98299C11.116 2.97415 10.8111 3.26575 10.8023 3.63246V22.6439C10.8023 23.015 11.1027 23.311 11.4694 23.311C11.6461 23.311 11.814 23.2403 11.9422 23.1166L17.2484 17.8104C17.5047 17.5453 17.5047 17.1256 17.244 16.8649Z" fill="white"/>
<path d="M6.78613 0.738557C6.5343 0.636939 6.24712 0.694376 6.05713 0.884357L0.755319 6.19501C0.494646 6.45568 0.494646 6.87982 0.755319 7.1405C1.01599 7.40117 1.44014 7.40117 1.70081 7.1405L5.86715 2.97415V20.3376C5.85832 20.7087 6.14992 21.0136 6.51663 21.0224C6.88775 21.0312 7.19261 20.7396 7.20144 20.3729C7.20144 20.3597 7.20144 20.3508 7.20144 20.3376V1.3571C7.20144 1.08759 7.03797 0.844594 6.78613 0.738557Z" stroke="white" stroke-width="0.1"/>
<path d="M17.244 16.8649C16.9833 16.6042 16.5592 16.6042 16.2985 16.8649L12.1366 21.0312V3.66781C12.1454 3.29668 11.8538 2.99182 11.4871 2.98299C11.116 2.97415 10.8111 3.26575 10.8023 3.63246V22.6439C10.8023 23.015 11.1027 23.311 11.4694 23.311C11.6461 23.311 11.814 23.2403 11.9422 23.1166L17.2484 17.8104C17.5047 17.5453 17.5047 17.1256 17.244 16.8649Z" stroke="white" stroke-width="0.1"/>
</g>
</svg>
