<svg width="26" height="28" viewBox="0 0 26 28" fill="none" xmlns="http://www.w3.org/2000/svg">
<g id="Vector">
<path d="M7.19643 14.0002C3.50446 14.0002 0.5 10.9958 0.5 7.30383C0.5 3.61188 3.50446 0.607422 7.19643 0.607422C10.8884 0.607422 13.8929 3.61188 13.8929 7.30383C13.8929 10.9958 10.8884 14.0002 7.19643 14.0002ZM7.19643 1.50028C3.99554 1.50028 1.39286 4.10295 1.39286 7.30383C1.39286 10.5047 3.99554 13.1074 7.19643 13.1074C10.3973 13.1074 13 10.5047 13 7.30383C13 4.10295 10.3973 1.50028 7.19643 1.50028Z" fill="white"/>
<path d="M7.64286 6.88865V4.66991C8.40179 4.79937 8.98214 5.23687 8.98214 5.7458C8.98214 5.99134 9.18304 6.19223 9.42857 6.19223C9.67411 6.19223 9.875 5.99134 9.875 5.7458C9.875 4.73241 8.92411 3.91991 7.64286 3.76366V3.28599C7.64286 3.04045 7.44196 2.83956 7.19643 2.83956C6.95089 2.83956 6.75 3.04045 6.75 3.28599V3.76366C5.46875 3.91991 4.51786 4.73241 4.51786 5.7458C4.51786 6.75919 5.46875 7.57169 6.75 7.72794V9.94668C5.99107 9.81722 5.41071 9.37972 5.41071 8.87079C5.41071 8.62526 5.20982 8.42436 4.96429 8.42436C4.71875 8.42436 4.51786 8.62526 4.51786 8.87079C4.51786 9.88418 5.46875 10.6967 6.75 10.8529V11.3261C6.75 11.5717 6.95089 11.7726 7.19643 11.7726C7.44196 11.7726 7.64286 11.5717 7.64286 11.3261V10.8529C8.92411 10.6967 9.875 9.88418 9.875 8.87079C9.875 7.8574 8.92411 7.0449 7.64286 6.88865ZM5.41071 5.7458C5.41071 5.23687 5.99107 4.79937 6.75 4.66991V6.81723C5.99107 6.68776 5.41071 6.25026 5.41071 5.74134V5.7458ZM7.64286 7.79937C8.40179 7.92883 8.98214 8.36633 8.98214 8.87526C8.98214 9.38418 8.40179 9.82168 7.64286 9.95115V7.79937Z" fill="white"/>
<path d="M25.0536 26.5002H24.1607V9.08954C24.1607 8.84401 23.9598 8.64311 23.7143 8.64311H19.25C19.0045 8.64311 18.8036 8.84401 18.8036 9.08954V13.1074H14.7857C14.5402 13.1074 14.3393 13.3083 14.3393 13.5538V17.5717H10.3214C10.0759 17.5717 9.875 17.7726 9.875 18.0181V22.0359H5.85714C5.61161 22.0359 5.41071 22.2368 5.41071 22.4824V26.5002H4.51786C4.27232 26.5002 4.07143 26.7011 4.07143 26.9466C4.07143 27.1922 4.27232 27.3931 4.51786 27.3931H25.0536C25.2991 27.3931 25.5 27.1922 25.5 26.9466C25.5 26.7011 25.2991 26.5002 25.0536 26.5002ZM6.30357 22.9288H9.875V26.5002H6.30357V22.9288ZM10.7679 18.4645H14.3393V26.5002H10.7679V18.4645ZM15.2321 14.0002H18.8036V26.5002H15.2321V14.0002ZM19.6964 26.5002V9.53597H23.2679V26.5002H19.6964Z" fill="white"/>
<path d="M7.19643 14.0002C3.50446 14.0002 0.5 10.9958 0.5 7.30383C0.5 3.61188 3.50446 0.607422 7.19643 0.607422C10.8884 0.607422 13.8929 3.61188 13.8929 7.30383C13.8929 10.9958 10.8884 14.0002 7.19643 14.0002ZM7.19643 1.50028C3.99554 1.50028 1.39286 4.10295 1.39286 7.30383C1.39286 10.5047 3.99554 13.1074 7.19643 13.1074C10.3973 13.1074 13 10.5047 13 7.30383C13 4.10295 10.3973 1.50028 7.19643 1.50028Z" stroke="white" stroke-width="0.1"/>
<path d="M7.64286 6.88865V4.66991C8.40179 4.79937 8.98214 5.23687 8.98214 5.7458C8.98214 5.99134 9.18304 6.19223 9.42857 6.19223C9.67411 6.19223 9.875 5.99134 9.875 5.7458C9.875 4.73241 8.92411 3.91991 7.64286 3.76366V3.28599C7.64286 3.04045 7.44196 2.83956 7.19643 2.83956C6.95089 2.83956 6.75 3.04045 6.75 3.28599V3.76366C5.46875 3.91991 4.51786 4.73241 4.51786 5.7458C4.51786 6.75919 5.46875 7.57169 6.75 7.72794V9.94668C5.99107 9.81722 5.41071 9.37972 5.41071 8.87079C5.41071 8.62526 5.20982 8.42436 4.96429 8.42436C4.71875 8.42436 4.51786 8.62526 4.51786 8.87079C4.51786 9.88418 5.46875 10.6967 6.75 10.8529V11.3261C6.75 11.5717 6.95089 11.7726 7.19643 11.7726C7.44196 11.7726 7.64286 11.5717 7.64286 11.3261V10.8529C8.92411 10.6967 9.875 9.88418 9.875 8.87079C9.875 7.8574 8.92411 7.0449 7.64286 6.88865ZM5.41071 5.7458C5.41071 5.23687 5.99107 4.79937 6.75 4.66991V6.81723C5.99107 6.68776 5.41071 6.25026 5.41071 5.74134V5.7458ZM7.64286 7.79937C8.40179 7.92883 8.98214 8.36633 8.98214 8.87526C8.98214 9.38418 8.40179 9.82168 7.64286 9.95115V7.79937Z" stroke="white" stroke-width="0.1"/>
<path d="M25.0536 26.5002H24.1607V9.08954C24.1607 8.84401 23.9598 8.64311 23.7143 8.64311H19.25C19.0045 8.64311 18.8036 8.84401 18.8036 9.08954V13.1074H14.7857C14.5402 13.1074 14.3393 13.3083 14.3393 13.5538V17.5717H10.3214C10.0759 17.5717 9.875 17.7726 9.875 18.0181V22.0359H5.85714C5.61161 22.0359 5.41071 22.2368 5.41071 22.4824V26.5002H4.51786C4.27232 26.5002 4.07143 26.7011 4.07143 26.9466C4.07143 27.1922 4.27232 27.3931 4.51786 27.3931H25.0536C25.2991 27.3931 25.5 27.1922 25.5 26.9466C25.5 26.7011 25.2991 26.5002 25.0536 26.5002ZM6.30357 22.9288H9.875V26.5002H6.30357V22.9288ZM10.7679 18.4645H14.3393V26.5002H10.7679V18.4645ZM15.2321 14.0002H18.8036V26.5002H15.2321V14.0002ZM19.6964 26.5002V9.53597H23.2679V26.5002H19.6964Z" stroke="white" stroke-width="0.1"/>
</g>
</svg>
