<svg xmlns="http://www.w3.org/2000/svg" width="32" height="32" viewBox="0 0 32 32" fill="none">
  <path d="M24.2444 20.865C23.9838 20.6043 23.5596 20.6043 23.299 20.865L19.137 25.0314V7.66792C19.1459 7.2968 18.8543 6.99194 18.4876 6.98311C18.1164 6.97427 17.8116 7.26587 17.8027 7.63258V26.644C17.8027 27.0151 18.1032 27.3111 18.4699 27.3111C18.6466 27.3111 18.8145 27.2404 18.9426 27.1167L24.2489 21.8105C24.5051 21.5454 24.5051 21.1257 24.2444 20.865Z" fill="white"/>
  <path d="M24.2444 20.865C23.9838 20.6043 23.5596 20.6043 23.299 20.865L19.137 25.0314V7.66792C19.1459 7.2968 18.8543 6.99194 18.4876 6.98311C18.1164 6.97427 17.8116 7.26587 17.8027 7.63258V26.644C17.8027 27.0151 18.1032 27.3111 18.4699 27.3111C18.6466 27.3111 18.8145 27.2404 18.9426 27.1167L24.2489 21.8105C24.5051 21.5454 24.5051 21.1257 24.2444 20.865Z" stroke="white" stroke-width="0.1"/>
  <path d="M13.7859 4.73856C13.5341 4.63694 13.2469 4.69438 13.0569 4.88436L7.75507 10.195C7.4944 10.4557 7.4944 10.8798 7.75507 11.1405C8.01575 11.4012 8.43989 11.4012 8.70057 11.1405L12.8669 6.97415V24.3376C12.8581 24.7087 13.1497 25.0136 13.5164 25.0224C13.8875 25.0312 14.1924 24.7396 14.2012 24.3729C14.2012 24.3597 14.2012 24.3508 14.2012 24.3376V5.3571C14.2012 5.08759 14.0377 4.84459 13.7859 4.73856Z" fill="#A1A2A3" stroke="#A1A2A3" stroke-width="0.1"/>
</svg>