<svg width="22" height="22" viewBox="0 0 22 22" fill="none" xmlns="http://www.w3.org/2000/svg">
<g id="hide (2) 3">
<path id="Hide" d="M13.7313 11.1879L14.9808 9.92172C15.0717 10.2664 15.125 10.6267 15.125 11.0002C15.125 13.3051 13.2746 15.1801 11 15.1801C10.6315 15.1801 10.2759 15.1262 9.93575 15.034L11.1853 13.7678C12.5515 13.6734 13.6381 12.5724 13.7313 11.1879ZM21.9134 10.6618C21.8288 10.5076 20.6295 8.37809 18.2851 6.57338L17.2846 7.5872C18.9941 8.86087 20.0772 10.3463 20.5037 11.0012C19.6888 12.2585 16.4923 16.5735 11 16.5735C10.1764 16.5735 9.4105 16.4667 8.68983 16.2964L7.56009 17.4412C8.59873 17.7639 9.74033 17.9668 11 17.9668C18.1969 17.9668 21.765 11.609 21.9134 11.3386C22.0289 11.128 22.0289 10.8723 21.9134 10.6618ZM19.0486 3.82939L3.92356 19.156C3.78933 19.292 3.61333 19.3601 3.4375 19.3601C3.26167 19.3601 3.08567 19.292 2.95144 19.156C2.6828 18.8838 2.6828 18.443 2.95144 18.1709L4.87575 16.221C1.76481 14.3179 0.184078 11.5164 0.086625 11.3386C-0.028875 11.128 -0.028875 10.8721 0.086625 10.6616C0.234953 10.3913 3.80308 4.03351 11 4.03351C12.8609 4.03351 14.4727 4.4637 15.8507 5.09976L18.0764 2.8443C18.3451 2.57208 18.7801 2.57208 19.0486 2.8443C19.317 3.11652 19.3172 3.55734 19.0486 3.82939ZM5.90098 15.1821L7.64156 13.4183C7.16083 12.7349 6.875 11.9015 6.875 11.0002C6.875 8.69524 8.72541 6.82017 11 6.82017C11.8895 6.82017 12.7119 7.10981 13.3863 7.59678L14.7938 6.17053C13.6818 5.71926 12.4181 5.42684 11 5.42684C5.50773 5.42684 2.3112 9.74181 1.49652 10.9991C2.01386 11.7937 3.50092 13.8049 5.90098 15.1821ZM8.63964 12.4067L12.3881 8.60833C11.9792 8.36363 11.5084 8.2135 11 8.2135C9.48372 8.2135 8.25 9.46366 8.25 11.0002C8.25 11.5153 8.39816 11.9924 8.63964 12.4067Z" fill="#A1A2A3"/>
</g>
</svg>
