<svg xmlns="http://www.w3.org/2000/svg" width="30" height="30" viewBox="0 0 30 30" fill="none">
  <path d="M29.5506 18.6301C27.5483 26.6652 19.4076 31.5556 11.3701 29.5504C3.33259 27.5451 -1.5556 19.4085 0.449807 11.3726C2.45521 3.33672 10.5919 -1.55596 18.6276 0.449592C26.6633 2.45515 31.556 10.5923 29.5506 18.6301Z" fill="#F7931A"/>
  <path d="M21.6153 12.8629C21.9135 10.8668 20.3937 9.79364 18.3152 9.07782L18.9902 6.374L17.3438 5.96389L16.6862 8.59661C16.2538 8.4889 15.8095 8.3866 15.3679 8.2864L16.0279 5.63628L14.3831 5.22617L13.7101 7.92894L10.3902 7.10662L9.95218 8.86481C9.95218 8.86481 11.1735 9.14472 11.1477 9.16212C11.8143 9.32863 11.9352 9.76964 11.9148 10.1194L10.0677 17.5266C9.98608 17.7292 9.77937 18.0328 9.31346 17.9167C9.32996 17.9407 8.11703 17.6167 8.11703 17.6167L7.2998 19.5036L10.6149 20.3406L9.93358 23.0759L11.5776 23.486L12.2526 20.7801C12.7027 20.9019 13.1377 21.0144 13.564 21.1203L12.8917 23.8136L14.5378 24.2237L15.2191 21.4937C18.0261 22.0247 20.137 21.8105 21.0243 19.2736C21.7401 17.2298 20.9892 16.0508 19.5122 15.2815C20.5878 15.0325 21.3978 14.3254 21.6139 12.8639L21.6153 12.8629ZM17.8532 18.1369C17.3432 20.1807 13.9028 19.0762 12.7865 18.7987L13.6904 15.1753C14.8062 15.4537 18.3839 16.0052 17.8538 18.1366L17.8532 18.1369ZM18.3638 12.8339C17.8997 14.694 15.0351 13.7489 14.1053 13.517L14.9238 10.2299C15.8538 10.4621 18.8465 10.8944 18.3626 12.8338" fill="white"/>
</svg>