<svg xmlns="http://www.w3.org/2000/svg" width="229" height="120" viewBox="0 0 229 120" fill="none">
<g filter="url(#filter0_d_262_1956)">
<rect x="20" y="16" width="189" height="80" rx="6" fill="url(#paint0_linear_262_1956)"/>
</g>
<mask id="mask0_262_1956" style="mask-type:alpha" maskUnits="userSpaceOnUse" x="20" y="16" width="189" height="80">
<rect x="20" y="16" width="189" height="80" rx="6" fill="url(#paint1_linear_262_1956)"/>
</mask>
<g mask="url(#mask0_262_1956)">
<path d="M-46.9948 103.462C-45.3425 104.561 -43.6227 104.851 -41.8107 104.196C-41.394 104.046 -41.0663 103.645 -40.7031 103.352C-40.5616 103.238 -40.4517 103.079 -40.2982 102.988C-40.1994 102.93 -40.0493 102.957 -39.9228 102.947C-39.9325 103.065 -39.9117 103.196 -39.9577 103.299C-40.0551 103.519 -40.1867 103.724 -40.3402 103.998C-40.1268 104.04 -39.992 104.058 -39.8609 104.094C-39.212 104.273 -38.5614 104.448 -37.916 104.641C-37.593 104.738 -37.2756 104.858 -36.965 104.989C-36.658 105.118 -36.4926 105.005 -36.3473 104.731C-35.2832 102.724 -33.6731 101.157 -32.1311 99.5372C-31.9664 99.3644 -31.7404 99.2502 -31.5429 99.1079C-31.5136 99.1425 -31.4842 99.1771 -31.4542 99.2118C-31.5092 99.2884 -31.5577 99.3715 -31.6194 99.4424C-32.3786 100.316 -33.2115 101.135 -33.8817 102.072C-34.7266 103.252 -35.4838 104.501 -36.1962 105.767C-37.0953 107.364 -37.8664 109.037 -38.984 110.501C-39.4942 111.17 -40.0925 111.771 -40.6381 112.414C-40.7714 112.57 -40.9832 112.823 -40.9348 112.934C-40.8569 113.112 -40.5911 113.317 -40.4078 113.314C-40.0326 113.31 -39.6039 113.265 -39.2946 113.077C-38.3728 112.518 -37.4506 111.941 -36.6155 111.263C-35.414 110.289 -34.1934 109.309 -33.1533 108.173C-31.7248 106.612 -30.4606 104.902 -29.1208 103.259C-28.5866 102.604 -28.0808 101.921 -27.4893 101.321C-26.357 100.173 -25.0521 99.6332 -23.3435 99.858C-21.0909 100.154 -18.8052 100.208 -16.5321 100.329C-14.5323 100.436 -12.5299 100.536 -10.5285 100.561C-7.97825 100.592 -5.42632 100.584 -2.8767 100.523C0.884628 100.433 4.64041 100.241 8.363 99.6363C11.1378 99.1855 13.9236 98.8018 16.6891 98.3037C20.0726 97.6942 23.4251 96.9193 26.6882 95.8272C29.5838 94.8582 32.365 93.5954 35.002 92.0608C38.2528 90.1699 41.4728 88.2207 44.6508 86.2098C47.2295 84.5787 49.5307 82.5866 51.7562 80.493C53.2804 79.0601 54.8673 77.6932 56.3091 76.1732C57.4361 74.9847 58.5342 73.7698 59.6554 72.5758C59.8242 72.396 59.8745 72.2337 59.8322 71.9868C59.5185 70.1741 59.0583 68.4012 58.4525 66.664C58.2211 66.0005 58.024 65.3253 57.8248 64.652C57.7887 64.5305 57.8186 64.389 57.8176 64.1441C58.406 64.7955 58.6823 65.4725 58.9639 66.1572C59.7909 68.1667 60.1511 70.3077 60.7731 72.3723C61.5584 74.9807 61.7052 77.6664 62.0051 80.3382C62.1055 81.2302 62.1376 82.1449 62.3756 83.0008C62.5813 83.7393 62.8279 84.462 62.8556 85.2276C62.8951 86.3284 62.8897 87.4318 62.8854 88.5339C62.8848 88.6706 62.801 88.8351 62.7042 88.9376C62.0856 89.5856 62.0373 90.1265 62.5424 90.858C62.5922 90.9306 62.5957 91.0538 62.5829 91.1488C62.4096 92.3985 62.1917 93.6429 62.0664 94.8971C61.9919 95.64 62.0155 96.4021 62.0869 97.1471C62.1138 97.4305 62.3459 97.757 62.5809 97.9402C62.8448 98.1467 62.8156 98.2755 62.6744 98.5096C62.0272 99.5793 61.5724 100.724 61.4192 101.97C61.2337 103.476 61.4306 104.883 62.3743 106.155C62.7715 106.69 63.1189 107.186 63.7942 107.401C64.9252 107.763 65.8343 107.341 66.6861 106.674C68.4508 105.29 69.7617 103.553 70.4536 101.423C70.906 100.029 71.2267 98.5858 71.5042 97.1445C71.8271 95.4721 72.0456 93.7796 72.297 92.0937C72.4754 90.8984 72.6368 89.7005 72.7972 88.5031C72.886 87.8369 73.0825 87.289 73.7309 86.9026C74.5537 86.4127 74.8276 85.4677 74.4943 84.6198C74.4094 84.4051 74.2349 84.2013 74.0522 84.0542C73.6897 83.7609 73.5852 83.4592 73.8552 83.087C74.3849 82.3553 74.2597 81.6559 73.8354 80.9393C73.7546 80.8028 73.6997 80.6236 73.7053 80.4664C73.7612 78.751 73.8163 77.0354 73.9098 75.3211C73.9349 74.8614 74.0113 74.37 74.21 73.9642C74.4033 73.5699 74.7664 73.2511 75.0839 72.9283C75.9067 72.0908 76.1766 71.0998 75.9851 69.956C75.8856 69.3619 75.5618 68.9404 75.0177 68.728C74.2005 68.409 73.7622 67.8082 73.4469 67.0114C73.0105 65.9081 72.8234 64.7598 72.6412 63.6047C72.6223 63.485 72.6243 63.3358 72.6803 63.2353C72.9662 62.7165 72.8747 62.2145 72.5851 61.7555C71.7324 60.4044 71.3966 58.9637 71.6501 57.3708C71.8828 55.9087 71.799 54.4736 71.1229 53.1079C70.7854 52.4247 70.2101 51.9986 69.5968 51.6485C69.335 51.4989 68.9037 51.5515 68.5773 51.6291C67.759 51.8224 67.077 52.2633 66.5345 52.9194C65.9381 53.6412 65.327 54.3505 64.722 55.0645C64.672 55.1239 64.6238 55.2022 64.5581 55.2271C64.4588 55.2646 64.3449 55.2632 64.2373 55.2786C64.2399 55.1731 64.2016 55.0406 64.2506 54.9657C64.585 54.4556 64.9018 53.9259 65.2933 53.462C65.8376 52.8183 66.4265 52.209 67.0273 51.617C67.6494 51.0038 68.3826 50.5868 69.2971 50.6834C70.0085 50.7583 70.6128 51.0958 71.1083 51.6012C71.8428 52.3521 72.3181 53.2445 72.3269 54.3128C72.3384 55.6883 72.2981 57.0648 72.2798 58.4403C72.2784 58.5413 72.2784 58.6427 72.2761 58.8682C72.6367 58.4909 72.9559 58.2136 73.2073 57.8843C74.3286 56.4176 75.4954 54.9789 76.5251 53.4495C77.8714 51.4498 79.4536 49.702 81.3988 48.2815C83.8051 46.5236 85.5252 44.2633 86.6201 41.4753C87.3781 39.5452 88.3194 37.6875 89.185 35.8008C89.2513 35.6553 89.3611 35.5294 89.4884 35.3386C88.4913 37.7708 87.5223 40.1342 86.5533 42.4977C86.5805 42.5116 86.6084 42.5257 86.6356 42.5396C86.8915 42.1985 87.1102 41.8193 87.4093 41.5219C89.2048 39.7379 90.1935 37.4645 91.251 35.2355C91.7796 34.1213 92.2403 32.9759 92.7408 31.8484C92.8168 31.6764 92.9458 31.5279 93.1241 31.4083C92.3506 33.7554 91.2694 35.9633 90.2236 38.2822C90.7435 37.7348 91.228 37.2623 91.6665 36.7512C92.0184 36.3404 92.3538 35.9053 92.6285 35.4418C93.7558 33.5412 94.8685 31.6314 95.9619 29.7113C96.3341 29.0576 96.634 28.3636 96.968 27.6884C97.0223 27.5786 97.08 27.4713 97.1364 27.3629C97.1842 27.381 97.233 27.3987 97.2809 27.4168C97.1584 27.7714 97.0795 28.1487 96.9057 28.4762C96.3322 29.5536 95.7233 30.611 95.1298 31.6779C94.5175 32.7788 93.9073 33.8809 93.2987 34.9835C93.2652 35.0445 93.2492 35.1162 93.2248 35.1826C93.2535 35.2066 93.2815 35.2303 93.3102 35.2543C94.0701 34.4962 94.8824 33.7832 95.577 32.9697C96.3601 32.0516 97.0119 31.0224 97.7659 30.0786C98.6595 28.9591 99.4706 27.8089 99.7164 26.3557C99.7243 26.3102 99.7529 26.2689 99.8087 26.1434C99.9453 26.7668 99.8387 27.2926 99.5779 27.7387C99.0687 28.6098 98.5014 29.4489 97.9272 30.2799C97.4953 30.9053 97.016 31.4973 96.6321 32.1594C96.9547 32.0125 97.2666 31.83 97.602 31.7257C98.0837 31.576 98.5872 31.4985 99.0742 31.363C100.353 31.0036 101.143 30.0991 101.636 28.9271C101.839 28.4443 101.899 27.9014 102.025 27.3859C102.206 26.642 102.413 25.9035 102.56 25.1526C102.652 24.6843 102.683 24.1978 102.684 23.7194C102.686 23.1888 102.658 23.19 102.146 23.2847C100.078 23.6684 98.074 24.2852 96.109 25.0161C92.2133 26.4662 88.3932 28.0934 84.7342 30.074C83.3017 30.8487 81.9383 31.7346 80.7032 32.8129C79.9688 33.4541 79.4492 34.2398 79.0043 35.0784C78.4686 36.0903 78.9578 37.1848 79.7147 37.8019C80.3134 38.2901 80.7214 38.8827 80.9844 39.591C81.198 40.1665 81.158 40.7062 80.7801 41.2161C80.044 42.2085 79.1112 42.9732 78.0186 43.5233C76.8683 44.1018 75.6764 44.5977 74.5208 45.1652C73.388 45.7215 72.2847 46.3381 71.1541 46.8989C69.9998 47.4708 68.8395 48.0348 67.6607 48.5524C66.1021 49.2375 64.7672 50.2631 63.4658 51.3162C61.8191 52.6483 60.2631 54.0928 58.657 55.4759C57.2529 56.6849 56.1363 58.1294 55.1396 59.6782C54 61.4486 52.4332 62.7206 50.5186 63.5709C50.2504 63.6901 49.9464 63.7289 49.659 63.8048C49.6427 63.7598 49.6273 63.7142 49.611 63.6691C49.8752 63.5401 50.1378 63.4082 50.4033 63.2835C52.4884 62.3061 54.0937 60.8343 55.3221 58.8661C56.2069 57.4483 57.292 56.1554 58.5124 54.9865C60.622 52.9651 62.8449 51.0825 65.2454 49.4165C65.8632 48.9881 66.5288 48.6205 67.2005 48.2801C69.2079 47.2619 71.2233 46.2569 73.2478 45.2735C74.3944 44.7166 75.5688 44.2164 76.7255 43.6805C77.8524 43.1582 78.9315 42.5581 79.8088 41.6559C80.8733 40.5615 80.8751 40.0985 79.9984 38.7535C79.8464 38.5206 79.6002 38.3467 79.39 38.1543C78.6419 37.4685 78.1618 36.6578 78.34 35.6081C78.4036 35.2342 78.5819 34.8685 78.7599 34.5268C79.3038 33.4815 80.1004 32.656 81.022 31.9272C82.8007 30.5197 84.7547 29.4039 86.7966 28.4449C90.7921 26.5687 94.8184 24.7571 99.0747 23.5324C100.173 23.2162 101.289 22.9664 102.419 22.6806C102.195 21.9345 101.69 21.4749 100.94 21.2514C99.9841 20.966 98.9979 20.9451 98.0359 21.0814C96.2084 21.3408 94.3892 21.6682 92.5781 22.0249C91.2411 22.2888 89.9369 22.8062 88.5929 22.9252C86.1679 23.1408 83.9169 23.9093 81.6604 24.7102C78.619 25.7908 75.5729 26.8613 72.5435 27.9722C69.2398 29.1838 66.0198 30.589 62.9188 32.2568C61.0611 33.2555 59.2355 34.3199 57.3395 35.2384C53.631 37.0338 50.0745 39.1014 46.5751 41.258C43.9955 42.847 41.5035 44.5838 39.0241 46.3286C36.9715 47.7734 34.9602 49.2831 32.9941 50.8442C31.2521 52.2269 29.589 53.7078 27.9082 55.1658C25.9616 56.854 24.0476 58.5799 22.0962 60.262C18.8186 63.0877 15.1655 65.3755 11.4623 67.5817C9.86384 68.5338 8.20469 69.3825 6.58621 70.3014C5.94298 70.6665 5.31219 71.0628 4.7195 71.5039C4.23507 71.8645 4.27713 72.0406 4.79324 72.3636C5.28502 72.671 5.48385 73.1262 5.37254 73.6975C5.35268 73.7981 5.32372 73.8964 5.33582 74.024C6.75029 72.861 7.92829 71.4421 9.38852 70.3418C9.42505 70.3765 9.46082 70.411 9.49736 70.4458C9.18965 70.7814 8.89565 71.13 8.57177 71.4496C7.10901 72.8944 5.65386 74.3475 4.16617 75.7661C2.57541 77.2833 1.01419 78.8408 -0.673515 80.2449C-3.40602 82.5189 -6.30013 84.5827 -9.34105 86.4382C-12.1659 88.1609 -15.1242 89.5684 -18.269 90.6083C-21.4934 91.6744 -24.6194 92.9981 -27.359 95.0387C-28.2226 95.682 -29.0261 95.7824 -29.9876 95.5986C-31.6338 95.2837 -33.2979 95.2839 -34.9645 95.3502C-37.5745 95.4544 -40.141 95.8759 -42.672 96.4968C-44.8554 97.0324 -46.8107 98.0747 -48.5364 99.4992C-49.3225 100.148 -49.9878 100.947 -50.6777 101.705C-50.8507 101.895 -50.9476 102.185 -50.9968 102.444C-51.0218 102.576 -50.8964 102.829 -50.7778 102.876C-50.3876 103.034 -49.9764 103.158 -49.5618 103.23C-49.1929 103.294 -48.807 103.301 -48.4332 103.273C-48.1922 103.255 -47.9261 103.174 -47.7299 103.037C-47.2718 102.718 -46.8578 102.337 -46.406 102.007C-46.2847 101.92 -46.0917 101.93 -45.9319 101.895C-45.9863 102.038 -46.0125 102.201 -46.0986 102.319C-46.3824 102.704 -46.6889 103.074 -46.9948 103.462ZM77.6031 39.4511C77.7246 39.4906 77.8391 39.5188 77.9474 39.563C78.7187 39.8788 79.0397 40.7276 78.6352 41.3758C78.2545 41.9856 77.0306 42.3529 76.3588 42.0512C76.2682 42.0104 76.1786 41.9393 76.1194 41.8596C75.7206 41.3208 75.8107 40.4787 76.3076 40.0149C76.3742 39.9532 76.461 39.9013 76.5014 39.8252C76.756 39.3421 77.1681 39.3548 77.6031 39.4511ZM37.9729 69.3865C39.2184 67.729 49.3262 62.286 50.961 62.3688C46.3164 64.1822 42.0776 66.6593 37.9729 69.3865ZM84.7121 37.3376C84.736 37.3484 84.7597 37.3598 84.7836 37.3705C84.5467 38.0928 84.2979 38.8114 84.0767 39.5384C83.7512 40.6083 83.5013 41.7049 83.1212 42.7549C82.4066 44.7278 81.3464 46.4896 79.6804 47.8249C79.2635 48.1595 78.8226 48.464 78.393 48.7818C78.3866 48.6507 78.4341 48.5915 78.4898 48.5416C78.6535 48.3927 78.8128 48.2387 78.987 48.1029C80.771 46.716 82.0493 44.9507 82.8067 42.833C83.2445 41.6104 83.5432 40.3384 83.9502 39.1034C84.1506 38.4969 84.4543 37.9253 84.7121 37.3376ZM29.6959 75.5164C31.2657 73.7736 39.1735 68.6948 41.0478 68.2152C37.1066 70.5063 33.1987 72.6977 29.6959 75.5164Z" fill="url(#paint2_linear_262_1956)"/>
<path d="M59.9192 73.4716C59.3612 74.0435 58.8065 74.6178 58.246 75.1866C56.1844 77.2778 54.1263 79.3714 52.0517 81.4497C51.8117 81.6901 51.691 81.8963 51.7282 82.2498C51.9022 83.8841 51.5614 85.4587 51.1108 87.0153C51.0837 87.1092 50.9939 87.216 50.9062 87.2555C50.5471 87.4168 50.4284 87.7498 50.5911 88.1027C50.672 88.2779 50.7442 88.4887 50.7237 88.6736C50.5597 90.1871 51.1868 91.4836 51.8914 92.7268C52.4214 93.6616 53.7056 93.7436 54.4721 92.9912C54.6205 92.8457 54.7754 92.6963 54.882 92.5213C55.7696 91.056 56.7479 89.6378 57.0333 87.8854C57.1495 87.1696 57.3757 86.4712 57.5583 85.7669C57.5755 85.7003 57.6254 85.6281 57.6813 85.5871C58.223 85.1899 58.3157 84.7403 57.9877 84.1625C57.931 84.0625 57.9093 83.9147 57.9316 83.8011C58.102 82.9466 58.2748 82.0919 58.4788 81.2448C58.5181 81.0814 58.6649 80.8833 58.8131 80.8175C59.4648 80.5294 59.7348 79.7572 59.3013 79.065C59.0025 78.5877 59.215 78.1941 59.2855 77.7761C59.517 76.4071 59.7842 75.0437 60.0351 73.6779C60.0416 73.6417 60.0281 73.6013 60.0247 73.5627C59.9894 73.5331 59.9549 73.5029 59.9196 73.4733L59.9192 73.4716Z" fill="url(#paint3_linear_262_1956)"/>
</g>
<path d="M94.2642 81V66.4545H97.3395V72.456H103.582V66.4545H106.651V81H103.582V74.9915H97.3395V81H94.2642ZM116.125 76.3551V70.0909H119.151V81H116.246V79.0185H116.132C115.886 79.6577 115.476 80.1714 114.903 80.5597C114.335 80.9479 113.642 81.142 112.822 81.142C112.093 81.142 111.452 80.9763 110.898 80.6449C110.344 80.3134 109.911 79.8423 109.598 79.2315C109.29 78.6207 109.134 77.8892 109.129 77.0369V70.0909H112.155V76.4972C112.16 77.1411 112.332 77.6501 112.673 78.0241C113.014 78.3982 113.471 78.5852 114.044 78.5852C114.409 78.5852 114.75 78.5024 115.067 78.3366C115.384 78.1662 115.64 77.9152 115.834 77.5838C116.033 77.2524 116.13 76.8428 116.125 76.3551ZM121.571 81V70.0909H124.454V72.0156H124.582C124.809 71.3764 125.188 70.8722 125.718 70.5028C126.249 70.1335 126.883 69.9489 127.622 69.9489C128.37 69.9489 129.007 70.1359 129.532 70.5099C130.058 70.8793 130.408 71.3812 130.583 72.0156H130.697C130.92 71.3906 131.322 70.8911 131.904 70.517C132.492 70.1383 133.185 69.9489 133.985 69.9489C135.003 69.9489 135.83 70.2732 136.464 70.9219C137.103 71.5658 137.423 72.4796 137.423 73.6634V81H134.404V74.2599C134.404 73.6539 134.243 73.1993 133.922 72.8963C133.6 72.5933 133.197 72.4418 132.714 72.4418C132.165 72.4418 131.736 72.617 131.429 72.9673C131.121 73.313 130.967 73.7699 130.967 74.3381V81H128.034V74.196C128.034 73.661 127.88 73.2348 127.572 72.9176C127.269 72.6004 126.869 72.4418 126.372 72.4418C126.036 72.4418 125.733 72.527 125.463 72.6974C125.198 72.8632 124.987 73.0975 124.831 73.4006C124.674 73.6989 124.596 74.0492 124.596 74.4517V81H121.571ZM139.813 85.0909V70.0909H142.796V71.9233H142.931C143.063 71.6297 143.255 71.3314 143.506 71.0284C143.762 70.7206 144.093 70.465 144.5 70.2614C144.912 70.053 145.424 69.9489 146.034 69.9489C146.83 69.9489 147.564 70.1572 148.236 70.5739C148.908 70.9858 149.446 71.6084 149.848 72.4418C150.251 73.2704 150.452 74.3097 150.452 75.5597C150.452 76.7765 150.256 77.804 149.863 78.642C149.474 79.4754 148.944 80.1075 148.272 80.5384C147.604 80.9645 146.856 81.1776 146.027 81.1776C145.44 81.1776 144.941 81.0805 144.529 80.8864C144.122 80.6922 143.788 80.4484 143.527 80.1548C143.267 79.8565 143.068 79.5559 142.931 79.2528H142.838V85.0909H139.813ZM142.775 75.5455C142.775 76.1941 142.864 76.7599 143.044 77.2429C143.224 77.7259 143.485 78.1023 143.826 78.3722C144.167 78.6373 144.581 78.7699 145.069 78.7699C145.561 78.7699 145.978 78.6349 146.319 78.3651C146.659 78.0904 146.917 77.7116 147.093 77.2287C147.273 76.741 147.363 76.1799 147.363 75.5455C147.363 74.9157 147.275 74.3617 147.1 73.8835C146.925 73.4053 146.667 73.0312 146.326 72.7614C145.985 72.4915 145.566 72.3565 145.069 72.3565C144.576 72.3565 144.159 72.4867 143.819 72.7472C143.482 73.0076 143.224 73.3769 143.044 73.8551C142.864 74.3333 142.775 74.8968 142.775 75.5455ZM152.526 81V66.4545H155.551V71.9233H155.644C155.776 71.6297 155.968 71.3314 156.219 71.0284C156.475 70.7206 156.806 70.465 157.213 70.2614C157.625 70.053 158.137 69.9489 158.748 69.9489C159.543 69.9489 160.277 70.1572 160.949 70.5739C161.622 70.9858 162.159 71.6084 162.561 72.4418C162.964 73.2704 163.165 74.3097 163.165 75.5597C163.165 76.7765 162.969 77.804 162.576 78.642C162.187 79.4754 161.657 80.1075 160.985 80.5384C160.317 80.9645 159.569 81.1776 158.74 81.1776C158.153 81.1776 157.654 81.0805 157.242 80.8864C156.835 80.6922 156.501 80.4484 156.24 80.1548C155.98 79.8565 155.781 79.5559 155.644 79.2528H155.509V81H152.526ZM155.488 75.5455C155.488 76.1941 155.578 76.7599 155.757 77.2429C155.937 77.7259 156.198 78.1023 156.539 78.3722C156.88 78.6373 157.294 78.7699 157.782 78.7699C158.274 78.7699 158.691 78.6349 159.032 78.3651C159.373 78.0904 159.631 77.7116 159.806 77.2287C159.986 76.741 160.076 76.1799 160.076 75.5455C160.076 74.9157 159.988 74.3617 159.813 73.8835C159.638 73.4053 159.38 73.0312 159.039 72.7614C158.698 72.4915 158.279 72.3565 157.782 72.3565C157.289 72.3565 156.873 72.4867 156.532 72.7472C156.195 73.0076 155.937 73.3769 155.757 73.8551C155.578 74.3333 155.488 74.8968 155.488 75.5455ZM168.295 81.206C167.599 81.206 166.978 81.0852 166.434 80.8438C165.889 80.5975 165.459 80.2353 165.141 79.7571C164.829 79.2741 164.673 78.6728 164.673 77.9531C164.673 77.3471 164.784 76.8381 165.006 76.4261C165.229 76.0142 165.532 75.6828 165.915 75.4318C166.299 75.1809 166.735 74.9915 167.222 74.8636C167.715 74.7358 168.231 74.6458 168.771 74.5938C169.405 74.5275 169.916 74.4659 170.305 74.4091C170.693 74.3475 170.975 74.2576 171.15 74.1392C171.325 74.0208 171.413 73.8456 171.413 73.6136V73.571C171.413 73.1212 171.271 72.7732 170.987 72.527C170.707 72.2808 170.309 72.1577 169.793 72.1577C169.249 72.1577 168.816 72.2784 168.494 72.5199C168.172 72.7566 167.959 73.0549 167.854 73.4148L165.056 73.1875C165.198 72.5246 165.478 71.9517 165.894 71.4688C166.311 70.9811 166.848 70.607 167.506 70.3466C168.169 70.0814 168.936 69.9489 169.808 69.9489C170.414 69.9489 170.994 70.0199 171.548 70.1619C172.106 70.304 172.601 70.5241 173.032 70.8224C173.468 71.1207 173.811 71.5043 174.062 71.973C174.313 72.437 174.438 72.9934 174.438 73.642V81H171.569V79.4872H171.484C171.308 79.8281 171.074 80.1288 170.781 80.3892C170.487 80.6449 170.134 80.8461 169.722 80.9929C169.31 81.1349 168.835 81.206 168.295 81.206ZM169.161 79.1179C169.606 79.1179 169.999 79.0303 170.34 78.8551C170.681 78.6752 170.949 78.4337 171.143 78.1307C171.337 77.8277 171.434 77.4844 171.434 77.1009V75.9432C171.339 76.0047 171.209 76.0616 171.043 76.1136C170.882 76.161 170.7 76.206 170.496 76.2486C170.293 76.2865 170.089 76.322 169.886 76.3551C169.682 76.3835 169.497 76.4096 169.332 76.4332C168.977 76.4853 168.666 76.5682 168.401 76.6818C168.136 76.7955 167.93 76.9493 167.783 77.1435C167.637 77.3329 167.563 77.5696 167.563 77.8537C167.563 78.2656 167.712 78.5805 168.011 78.7983C168.314 79.0114 168.697 79.1179 169.161 79.1179ZM181.714 81.2131C180.597 81.2131 179.636 80.9763 178.831 80.5028C178.031 80.0246 177.415 79.3617 176.984 78.5142C176.558 77.6667 176.345 76.6913 176.345 75.5881C176.345 74.4706 176.561 73.4905 176.991 72.6477C177.427 71.8002 178.045 71.1397 178.845 70.6662C179.645 70.188 180.597 69.9489 181.7 69.9489C182.652 69.9489 183.485 70.1217 184.2 70.4673C184.915 70.813 185.481 71.2983 185.898 71.9233C186.314 72.5483 186.544 73.2822 186.587 74.125H183.732C183.651 73.5805 183.438 73.1425 183.092 72.8111C182.751 72.4749 182.304 72.3068 181.75 72.3068C181.281 72.3068 180.872 72.4347 180.521 72.6903C180.176 72.9413 179.906 73.3082 179.712 73.7912C179.518 74.2741 179.42 74.8589 179.42 75.5455C179.42 76.2415 179.515 76.8333 179.705 77.321C179.899 77.8087 180.171 78.1804 180.521 78.4361C180.872 78.6918 181.281 78.8196 181.75 78.8196C182.096 78.8196 182.406 78.7486 182.68 78.6065C182.96 78.4645 183.189 78.2585 183.369 77.9886C183.554 77.714 183.675 77.3849 183.732 77.0014H186.587C186.539 77.8348 186.312 78.5687 185.905 79.2031C185.502 79.8329 184.946 80.3253 184.236 80.6804C183.526 81.0355 182.685 81.2131 181.714 81.2131ZM191.265 77.8608L191.272 74.2315H191.713L195.207 70.0909H198.68L193.985 75.5739H193.268L191.265 77.8608ZM188.524 81V66.4545H191.549V81H188.524ZM195.342 81L192.132 76.2486L194.149 74.1108L198.886 81H195.342Z" fill="white"/>
<defs>
<filter id="filter0_d_262_1956" x="0" y="0" width="229" height="120" filterUnits="userSpaceOnUse" color-interpolation-filters="sRGB">
<feFlood flood-opacity="0" result="BackgroundImageFix"/>
<feColorMatrix in="SourceAlpha" type="matrix" values="0 0 0 0 0 0 0 0 0 0 0 0 0 0 0 0 0 0 127 0" result="hardAlpha"/>
<feOffset dy="4"/>
<feGaussianBlur stdDeviation="10"/>
<feComposite in2="hardAlpha" operator="out"/>
<feColorMatrix type="matrix" values="0 0 0 0 0.172549 0 0 0 0 0.176471 0 0 0 0 0.192157 0 0 0 0.05 0"/>
<feBlend mode="normal" in2="BackgroundImageFix" result="effect1_dropShadow_262_1956"/>
<feBlend mode="normal" in="SourceGraphic" in2="effect1_dropShadow_262_1956" result="shape"/>
</filter>
<linearGradient id="paint0_linear_262_1956" x1="46.5" y1="-0.500006" x2="145.945" y2="135.75" gradientUnits="userSpaceOnUse">
<stop stop-color="#6CAB56"/>
<stop offset="1" stop-color="#A1E3B0"/>
</linearGradient>
<linearGradient id="paint1_linear_262_1956" x1="12.6244" y1="-8.34782" x2="110.224" y2="101.612" gradientUnits="userSpaceOnUse">
<stop stop-color="#9D619B"/>
<stop offset="1" stop-color="#D8A1D2"/>
</linearGradient>
<linearGradient id="paint2_linear_262_1956" x1="67.8571" y1="103.884" x2="59.9466" y2="-37.3544" gradientUnits="userSpaceOnUse">
<stop stop-color="#4DA64F"/>
<stop offset="1" stop-color="#2C2D31"/>
</linearGradient>
<linearGradient id="paint3_linear_262_1956" x1="51.2067" y1="90.8289" x2="57.2474" y2="65.125" gradientUnits="userSpaceOnUse">
<stop stop-color="#569F58"/>
<stop offset="1" stop-color="#2C2D31"/>
</linearGradient>
</defs>
</svg>