<svg width="1512" height="1017" viewBox="0 0 1512 1017" fill="none" xmlns="http://www.w3.org/2000/svg">
<path d="M524.944 1002.28L-294.707 772.695C-362.942 753.583 -396.04 676.297 -362.789 613.722L-39.8058 5.91317C-20.5412 -30.3402 17.1605 -53 58.2145 -53H1445.92C1495.88 -53 1539.68 -19.6206 1552.94 28.5509L1592.39 171.904C1604.52 215.984 1588.38 262.993 1551.73 290.328L621.249 984.368C593.66 1004.95 558.086 1011.56 524.944 1002.28Z" fill="#FF8D29"/>
<mask id="mask0_24_157" style="mask-type:alpha" maskUnits="userSpaceOnUse" x="-325" y="-53" width="2159" height="1056">
<path d="M528.504 999.021L-241.681 797.432C-307.717 780.148 -342.653 707.918 -315.206 645.418L-37.6455 13.3689C-19.936 -26.9584 19.942 -53 63.9866 -53H1743.74C1767.3 -53 1789.92 -43.7615 1806.75 -27.2681C1846.26 11.4596 1841.8 76.3252 1797.37 109.289L622.75 980.783C595.723 1000.83 561.06 1007.54 528.504 999.021Z" fill="#FF8D29"/>
</mask>
<g mask="url(#mask0_24_157)">
<path d="M1646.27 599.882C1629.27 672.823 1521.78 747.412 1417.86 787.345C1314.37 828.142 1216.46 835.449 1109.13 847.247C1002.97 858.484 888.985 874.514 807.621 840.99C726.257 807.466 677.933 725.252 705.124 646.395C731.138 568.1 832.251 492.298 908.389 400.756C984.527 309.213 1036.45 200.505 1113.12 167.174C1190.55 132.417 1292.72 173.036 1364.87 220.515C1437.02 267.994 1477.63 325.184 1534.68 389.424C1591.73 453.664 1664.45 526.381 1646.27 599.882Z" fill="url(#paint0_linear_24_157)" fill-opacity="0.3"/>
</g>
<g clip-path="url(#clip0_24_157)">
<path d="M531.38 -26.2226C581.117 34.5169 649.848 104.401 662.611 178.737C675.373 253.073 630.654 331.981 559.274 362.775C488.591 392.753 391.367 376.13 312.854 393.791C233.645 412.269 173.963 465.727 109.975 474.622C46.683 482.701 -20.218 445.399 -40.3978 383.07C-61.2737 321.557 -34.6119 235.713 -57.4818 168.27C-78.8389 100.707 -148.215 51.4236 -131.412 23.4479C-115.305 -3.71127 -13.7155 -8.74673 37.3978 -45.5402C88.5111 -82.3337 89.2681 -149.373 113.084 -165.728C136.204 -181.267 183.2 -145.427 238.378 -140.682C293.556 -135.937 356.917 -162.288 404.317 -150.074C451.716 -137.86 482.459 -86.2659 531.38 -26.2226Z" fill="url(#paint1_linear_24_157)" fill-opacity="0.3"/>
</g>
<defs>
<linearGradient id="paint0_linear_24_157" x1="557" y1="431.991" x2="1542.97" y2="952.528" gradientUnits="userSpaceOnUse">
<stop stop-color="white"/>
<stop offset="1" stop-color="#F87537"/>
</linearGradient>
<linearGradient id="paint1_linear_24_157" x1="-283" y1="200.805" x2="760.647" y2="88.7111" gradientUnits="userSpaceOnUse">
<stop stop-color="white"/>
<stop offset="1" stop-color="#F87537"/>
</linearGradient>
<clipPath id="clip0_24_157">
<rect width="1073" height="1073" fill="white" transform="translate(-393 -406)"/>
</clipPath>
</defs>
</svg>
