<svg width="1511" height="819" viewBox="0 0 1511 819" fill="none" xmlns="http://www.w3.org/2000/svg">
<g clip-path="url(#clip0_24_232)">
<rect width="1512" height="819" fill="#FD8F3B"/>
<path d="M1723.27 788.066C1706.27 861.006 1598.78 935.596 1494.86 975.528C1391.37 1016.33 1293.46 1023.63 1186.13 1035.43C1079.97 1046.67 965.985 1062.7 884.621 1029.17C803.257 995.65 754.933 913.436 782.124 834.579C808.138 756.284 909.251 680.482 985.389 588.939C1061.53 497.397 1113.45 388.689 1190.12 355.357C1267.55 320.6 1369.72 361.22 1441.87 408.699C1514.02 456.178 1554.63 513.367 1611.68 577.608C1668.73 641.848 1741.45 714.565 1723.27 788.066Z" fill="url(#paint0_linear_24_232)" fill-opacity="0.3"/>
</g>
<defs>
<linearGradient id="paint0_linear_24_232" x1="634" y1="620.175" x2="1619.97" y2="1140.71" gradientUnits="userSpaceOnUse">
<stop stop-color="white"/>
<stop offset="1" stop-color="#FD8F3B"/>
</linearGradient>
<clipPath id="clip0_24_232">
<rect width="1512" height="819" fill="white"/>
</clipPath>
</defs>
</svg>
