<svg width="710" height="882" viewBox="0 0 710 882" fill="none" xmlns="http://www.w3.org/2000/svg">
<path d="M445.802 117.655C498.621 164.745 537.766 216.587 587.662 271.237C637.52 324.824 697.105 382.32 707.913 445.834C718.722 509.348 680.793 579.943 630.359 628.623C579.964 678.366 517.101 707.257 458.877 746.631C399.627 787.108 347.143 837.991 279.91 863.845C212.64 888.635 130.584 887.331 55.092 861.294C-20.3998 835.257 -90.4677 782.399 -96.1879 712.311C-100.844 642.185 -42.2554 553.805 -23.6644 478.581C-6.13711 403.396 -29.6332 342.47 -32.3541 266.949C-35.0749 191.428 -16.9821 102.376 34.4772 52.595C86.9618 1.71161 173.915 -8.87644 250.164 8.61255C327.438 24.9995 392.945 69.5019 445.802 117.655Z" fill="url(#paint0_linear_24_80)"/>
<defs>
<linearGradient id="paint0_linear_24_80" x1="-89.789" y1="891.417" x2="758.214" y2="48.449" gradientUnits="userSpaceOnUse">
<stop stop-color="#F87537"/>
<stop offset="1" stop-color="#FBA81F"/>
</linearGradient>
</defs>
</svg>
