<svg xmlns="http://www.w3.org/2000/svg" width="26" height="24" fill="none"><path fill="#fff" d="M23.484 12.806v-2.42a2.826 2.826 0 0 0-2.823-2.822h-2.42V5.12c0-.704-.364-1.34-.975-1.704a2.014 2.014 0 0 0-2.003-.043l-.65.324V2.382c0-.833-.461-1.56-1.204-1.897a1.958 1.958 0 0 0-2.12.32l-7.715 6.76h-.251A2.826 2.826 0 0 0 .5 10.386V20.87a2.826 2.826 0 0 0 2.823 2.822H20.66a2.826 2.826 0 0 0 2.823-2.822v-2.42a2.018 2.018 0 0 0 2.016-2.016v-1.613a2.018 2.018 0 0 0-2.016-2.016Zm-7.848-8.718a1.22 1.22 0 0 1 1.218.021c.364.217.582.594.582 1.011v2.444H8.664l6.972-3.476ZM11.82 1.41a1.145 1.145 0 0 1 1.255-.191c.353.16.73.55.73 1.162V4.1l-6.95 3.465H4.799l7.023-6.153Zm10.856 19.46a2.018 2.018 0 0 1-2.016 2.016H3.323a2.018 2.018 0 0 1-2.017-2.016V10.387c0-1.112.905-2.016 2.017-2.016H20.66c1.112 0 2.016.904 2.016 2.016v2.42h-4.032c-2.016 0-2.016 2.124-2.016 2.822s0 2.822 2.016 2.822h4.032v2.42Zm2.017-4.436c0 .667-.543 1.21-1.21 1.21h-4.839c-.726 0-1.21-.343-1.21-2.016s.484-2.016 1.21-2.016h4.839c.667 0 1.21.542 1.21 1.21v1.612Z"/><path fill="#fff" d="M19.855 14.016c-.89 0-1.613.723-1.613 1.613s.723 1.613 1.613 1.613 1.613-.724 1.613-1.613c0-.89-.724-1.613-1.613-1.613Zm0 2.42a.807.807 0 1 1 .002-1.615.807.807 0 0 1-.002 1.614Z"/><path stroke="#fff" stroke-width=".25" d="M23.484 12.806v-2.42a2.826 2.826 0 0 0-2.823-2.822h-2.42V5.12c0-.704-.364-1.34-.975-1.704a2.014 2.014 0 0 0-2.003-.043l-.65.324V2.382c0-.833-.461-1.56-1.204-1.897a1.958 1.958 0 0 0-2.12.32l-7.715 6.76h-.251A2.826 2.826 0 0 0 .5 10.386V20.87a2.826 2.826 0 0 0 2.823 2.822H20.66a2.826 2.826 0 0 0 2.823-2.822v-2.42a2.018 2.018 0 0 0 2.016-2.016v-1.613a2.018 2.018 0 0 0-2.016-2.016Zm-7.848-8.718a1.22 1.22 0 0 1 1.218.021c.364.217.582.594.582 1.011v2.444H8.664l6.972-3.476ZM11.82 1.41a1.145 1.145 0 0 1 1.255-.191c.353.16.73.55.73 1.162V4.1l-6.95 3.465H4.799l7.023-6.153Zm10.856 19.46a2.018 2.018 0 0 1-2.016 2.016H3.323a2.018 2.018 0 0 1-2.017-2.016V10.387c0-1.112.905-2.016 2.017-2.016H20.66c1.112 0 2.016.904 2.016 2.016v2.42h-4.032c-2.016 0-2.016 2.124-2.016 2.822s0 2.822 2.016 2.822h4.032v2.42Zm2.017-4.436c0 .667-.543 1.21-1.21 1.21h-4.839c-.726 0-1.21-.343-1.21-2.016s.484-2.016 1.21-2.016h4.839c.667 0 1.21.542 1.21 1.21v1.612Z"/><path stroke="#fff" stroke-width=".25" d="M19.855 14.016c-.89 0-1.613.723-1.613 1.613s.723 1.613 1.613 1.613 1.613-.724 1.613-1.613c0-.89-.724-1.613-1.613-1.613Zm0 2.42a.807.807 0 1 1 .002-1.615.807.807 0 0 1-.002 1.614Z"/></svg>