<svg xmlns="http://www.w3.org/2000/svg" width="24" height="23" fill="none"><path fill="#fff" d="m8.973 1.372-.19-.64.19.64Zm1.113.425-.555.37.555-.37Zm-5.43 2.07.46.484-.46-.483Zm-.188 1.178.597-.296-.597.296Zm.676 1.367.577.333.179-.309-.159-.32-.597.296ZM4.077 8.26l.043.665.356-.023.179-.309-.578-.333Zm-1.525.099.043.665-.043-.665Zm-.925.752.648.155-.648-.155Zm0 4.985.648-.155-.649.155Zm.925.752.042-.665-.042.665Zm1.525.097.578-.333-.179-.31-.356-.022-.043.665Zm1.067 1.848.598.296.158-.32-.179-.309-.577.333Zm-.677 1.37.598.295-.598-.295Zm.189 1.177.459-.484-.46.484Zm4.317 2.495-.19.64.19-.64Zm1.113-.425.555.37-.555-.37Zm.848-1.273v-.667h-.357l-.198.297.555.37Zm2.133 0 .555-.37-.198-.297h-.357v.667Zm.848 1.273-.554.37.554-.37Zm1.113.425.19.64-.19-.64Zm4.318-2.495.459.483-.46-.483Zm.188-1.177-.597.295.597-.295Zm-.677-1.37-.577-.333-.178.309.158.32.597-.296Zm1.067-1.848-.042-.665-.357.023-.178.31.577.332Zm1.525-.097-.042-.665.042.665Zm.926-.752-.648-.155.648.155Zm0-4.985-.649.155.648-.155Zm-.925-.752-.043.665.043-.665Zm-1.526-.099-.577.333.178.31.356.022.043-.665Zm-1.067-1.848-.597-.295-.158.32.178.308.577-.333Zm.677-1.367-.598-.296.598.296Zm-.189-1.177-.459.483.46-.483Zm-4.317-2.496-.189.64.19-.64Zm-1.113.425.555.37-.555-.37Zm-.848 1.273v.667h.357l.198-.297-.555-.37Zm-2.133 0-.555.37.198.297h.357V3.07ZM9.162 2.011c.116-.034.271.01.369.156l1.11-.74C10.25.842 9.512.518 8.784.734l.378 1.278Zm-4.047 2.34a9.987 9.987 0 0 1 4.047-2.34L8.784.733a11.32 11.32 0 0 0-4.587 2.651l.918.967Zm-.05.398c-.078-.158-.038-.314.05-.398l-.918-.967c-.55.523-.64 1.324-.327 1.956l1.195-.59Zm.676 1.368-.676-1.368-1.195.591.676 1.368 1.195-.591ZM4.655 8.593 5.72 6.745 4.566 6.08 3.5 7.927l1.155.666Zm-2.06.43 1.525-.098-.086-1.33-1.525.098.086 1.33Zm-.32.243c.029-.118.144-.23.32-.242l-.086-1.33c-.704.045-1.353.523-1.53 1.262l1.296.31Zm-.274 2.338c0-.806.095-1.588.274-2.338L.98 8.956c-.204.85-.312 1.736-.312 2.648h1.334Zm.274 2.337A10.035 10.035 0 0 1 2 11.604H.667c0 .91.108 1.798.311 2.647l1.297-.31Zm.32.242c-.177-.011-.292-.124-.32-.242l-1.297.31c.177.74.827 1.218 1.531 1.263l.085-1.331Zm1.525.097-1.526-.097-.085 1.33 1.526.098.085-1.33Zm1.601 2.18-1.066-1.848-1.155.667 1.066 1.848 1.155-.667Zm-.656 1.998.677-1.37-1.196-.59-.677 1.37 1.196.59Zm.05.398c-.089-.084-.128-.24-.05-.398l-1.196-.59c-.312.632-.223 1.432.327 1.955l.919-.967Zm4.047 2.34a9.987 9.987 0 0 1-4.047-2.34l-.919.967a11.321 11.321 0 0 0 4.588 2.652l.378-1.279Zm.369-.156c-.098.147-.253.19-.37.156l-.377 1.279c.728.215 1.466-.109 1.857-.695l-1.11-.74Zm.848-1.273-.848 1.273 1.11.74.848-1.273-1.11-.74Zm2.688-.297h-2.133v1.334h2.133V19.47Zm1.403 1.57-.848-1.273-1.11.74.849 1.273 1.11-.74Zm.37.156c-.117.035-.272-.01-.37-.156l-1.11.74c.392.586 1.13.91 1.857.695l-.378-1.279Zm4.047-2.34a9.986 9.986 0 0 1-4.048 2.34l.378 1.279a11.32 11.32 0 0 0 4.588-2.652l-.918-.967Zm.05-.398c.078.158.038.314-.05.398l.918.967c.55-.523.64-1.323.327-1.956l-1.195.591Zm-.677-1.37.677 1.37 1.195-.59-.677-1.37-1.195.59Zm1.087-2.476L18.28 16.46l1.155.667 1.067-1.848-1.155-.667Zm2.06-.43-1.525.098.084 1.33 1.526-.096-.085-1.331Zm.32-.24c-.029.117-.144.23-.32.24l.085 1.332c.704-.045 1.354-.523 1.531-1.263l-1.296-.31ZM22 11.603c0 .806-.095 1.589-.274 2.337l1.296.31c.204-.85.311-1.736.311-2.647h-1.333Zm-.275-2.338c.18.75.275 1.532.275 2.338h1.333c0-.912-.108-1.798-.311-2.648l-1.297.31Zm-.32-.242c.176.011.292.124.32.242l1.297-.31c-.177-.74-.826-1.217-1.53-1.263l-.086 1.33Zm-1.525-.099 1.526.099.086-1.33-1.526-.1-.086 1.331Zm-1.601-2.18 1.067 1.848 1.154-.666-1.066-1.848-1.155.666Zm.656-1.996-.676 1.368 1.195.59.676-1.367-1.195-.59Zm-.05-.398c.089.084.128.24.05.398l1.195.591c.313-.632.224-1.433-.326-1.956l-.919.967Zm-4.046-2.34a9.988 9.988 0 0 1 4.046 2.34l.919-.967A11.321 11.321 0 0 0 15.216.733L14.84 2.01Zm-.37.156c.098-.146.253-.19.37-.156l.377-1.278c-.728-.216-1.465.108-1.856.695l1.11.74Zm-.848 1.273.848-1.273-1.11-.74-.848 1.274 1.11.739Zm-2.688.297h2.133V2.404h-2.133v1.333Zm-1.403-1.57.848 1.273 1.11-.74-.848-1.272-1.11.74Zm6.07 9.437a3.6 3.6 0 0 1-3.6 3.6v1.333a4.933 4.933 0 0 0 4.933-4.933h-1.333Zm-3.6-3.6a3.6 3.6 0 0 1 3.6 3.6h1.333a4.933 4.933 0 0 0-4.933-4.934v1.334Zm-3.6 3.6a3.6 3.6 0 0 1 3.6-3.6V6.67a4.933 4.933 0 0 0-4.934 4.934h1.334Zm3.6 3.6a3.6 3.6 0 0 1-3.6-3.6H7.067a4.933 4.933 0 0 0 4.934 4.933v-1.333Z"/></svg>