<svg width="16" height="16" fill="none" xmlns="http://www.w3.org/2000/svg"><g clip-path="url(#a)"><mask id="b" style="mask-type:luminance" maskUnits="userSpaceOnUse" x="0" y="0" width="16" height="16"><path d="M16 0H0v16h16V0Z" fill="#fff"/></mask><g mask="url(#b)"><path d="M8 16A8 8 0 1 0 8 0a8 8 0 0 0 0 16Z" fill="#7B1AF7"/><path d="M4.5 8.2 10 3.6c.2-.2.4 0 .3.2L8.5 7.2h3s.5 0 0 .4l-5.2 4.6c-.4.3-.7.1-.4-.3l1.6-3.3h-3s-.5 0 0-.4Z" fill="#fff"/></g></g><defs><clipPath id="a"><path fill="#fff" d="M0 0h16v16H0z"/></clipPath></defs></svg>