<svg xmlns="http://www.w3.org/2000/svg" width="22" height="22" fill="none"><g fill="#fff"><path d="M21 10.332h-8.445a.667.667 0 0 1 0-1.333H21a.667.667 0 0 1 0 1.333Z"/><path d="M17.666 13.665a.667.667 0 0 1-.471-1.139l2.862-2.861-2.862-2.862a.667.667 0 1 1 .943-.943l3.333 3.333c.26.26.26.682 0 .943l-3.333 3.333a.662.662 0 0 1-.472.197ZM7.444 21.666c-.19 0-.37-.027-.55-.083l-5.35-1.782a1.794 1.794 0 0 1-1.21-1.69v-16c0-.98.797-1.778 1.777-1.778.19 0 .37.027.551.083l5.35 1.782c.727.254 1.21.932 1.21 1.69v16a1.78 1.78 0 0 1-1.778 1.778Zm-5.333-20c-.244 0-.444.2-.444.445v16c0 .189.127.364.308.428L7.3 20.313c.039.012.088.02.145.02.245 0 .445-.2.445-.445v-16a.462.462 0 0 0-.309-.428L2.256 1.686a.482.482 0 0 0-.145-.02Z"/><path d="M13.889 7.444a.667.667 0 0 1-.667-.667v-4c0-.612-.499-1.11-1.111-1.11h-10a.667.667 0 0 1 0-1.334h10a2.446 2.446 0 0 1 2.444 2.444v4a.667.667 0 0 1-.666.667ZM12.111 19H8.555a.667.667 0 0 1 0-1.334h3.556c.612 0 1.11-.499 1.11-1.111v-4a.667.667 0 0 1 1.334 0v4a2.446 2.446 0 0 1-2.444 2.444Z"/></g></svg>