<svg width="16" height="16" fill="none" xmlns="http://www.w3.org/2000/svg"><path d="M8 16A8 8 0 1 0 8 0a8 8 0 1 0 0 16Z" fill="#2775CA"/><path d="M10.2 9.3c0-1.2-.7-1.6-2.1-1.8-1-.1-1.2-.4-1.2-.8 0-.5.3-.8 1-.8.6 0 1 .2 1.1.7l.2.2h.6c.1 0 .2-.1.2-.3-.1-.7-.7-1.3-1.5-1.4v-.8c0-.1-.1-.2-.3-.2h-.5c-.1 0-.2 0-.2.2v.8c-1 .1-1.7.8-1.7 1.6 0 1.1.7 1.6 2.1 1.7 1 .2 1.2.4 1.2 1 0 .5-.4.8-1 .8-1 0-1.2-.3-1.3-.8 0-.2-.2-.2-.3-.2H6c-.2 0-.3 0-.3.2.2.9.7 1.5 1.8 1.6v.8c0 .2.1.3.3.3h.5c.1 0 .2-.1.2-.3V11c1-.1 1.7-.8 1.7-1.7Z" fill="#fff"/><path d="M6.3 12.8a5 5 0 0 1-3-6.4 5 5 0 0 1 3-3l.2-.3v-.5c0-.1 0-.2-.2-.3h-.1a6 6 0 0 0 0 11.5l.3-.1V13l-.2-.3ZM9.8 2.4c-.1-.1-.2 0-.3.1v.6l.2.3a5 5 0 0 1 3 6.4 5 5 0 0 1-3 3l-.2.3v.5c0 .1 0 .2.2.3h.1a6 6 0 0 0 4-7.6 6 6 0 0 0-4-4Z" fill="#fff"/></svg>